<?xml version="1.0" encoding="utf-8"?>
	<!-- Generator: Adobe Illustrator 21.0.0, SVG Export Plug-In . SVG Version: 6.00 Build 0)  -->
	<svg version="1.1" id="Layer_1" xmlns="http://www.w3.org/2000/svg" xmlns:xlink="http://www.w3.org/1999/xlink" x="0px" y="0px" viewBox="0 0 2000 1024" style="enable-background:new 0 0 2000 1024;" xml:space="preserve">
		<style type="text/css">
			.st0 {
				fill: none;
			}
			
			.st1 {
				fill: none;
				stroke: #FFA1A1;
				stroke-miterlimit: 10;
			}
			
			.st2 {
				fill: none;
				stroke: #282828;
				stroke-miterlimit: 10;
			}
			
			.st3 {
				fill: none;
				stroke: #EFEFEF;
				stroke-miterlimit: 10;
			}
			
			.st4 {
				display: none;
				fill: #191919;
			}
			
			.st5 {
				display: none;
				fill: #FF3333;
			}
			
			.st6 {
				display: none;
				fill: url(#SVGID_1_);
				stroke: url(#SVGID_2_);
				stroke-miterlimit: 10;
			}
			
			.st7 {
				display: none;
			}
			
			.st8 {
				display: none;
				fill: url(#SVGID_3_);
			}
			
			.st9 {
				display: none;
				opacity: 0.9;
				fill: url(#SVGID_4_);
			}
			
			.st10 {
				display: none;
				fill: url(#SVGID_5_);
			}
			
			.st11 {
				fill: none;
				stroke: #000000;
				stroke-width: 2;
				stroke-miterlimit: 10;
			}
			
			.st12 {
				display: inline;
				fill: none;
				stroke: #EFEFEF;
				stroke-miterlimit: 10;
			}
			
			.st13 {
				fill: url(#SVGID_6_);
			}

		</style>
		<pattern x="-1422" y="-2" width="325" height="48.8" patternUnits="userSpaceOnUse" id="New_Pattern" viewBox="0 -83.3 325 48.8" style="overflow:invisible;">
			<g>
				<rect x="0" y="-83.3" class="st0" width="325" height="48.8" />
				<path class="st1" d="M0-39.3C43.1-39.1,52.9-0.9,80.9-0.5c32.2,0.5,53.2-35,81.2-35.2c28.7-0.2,40.6,30,81.2,30s41-33.5,81.6-33.5
			" />
				<path class="st1" d="M0-49c43.1,0.2,52.9,38.3,80.9,38.7c32.2,0.5,53.2-35,81.2-35.2c28.7-0.2,40.6,30,81.2,30S284.4-49,325-49" />
				<path class="st1" d="M0-58.8C43.1-58.6,52.9-20.4,80.9-20c32.2,0.5,53.2-35,81.2-35.2c28.7-0.2,40.6,30,81.2,30s41-33.5,81.6-33.5
			" />
				<path class="st1" d="M0-68.5c43.1,0.2,52.9,38.3,80.9,38.7c32.2,0.5,53.2-35,81.2-35.2c28.7-0.2,40.6,30,81.2,30
			s41-33.5,81.6-33.5" />
				<path class="st1" d="M0-78.3c43.1,0.2,52.9,38.3,80.9,38.7c32.2,0.5,53.2-35,81.2-35.2c28.7-0.2,40.6,30,81.2,30
			s41-33.5,81.6-33.5" />
				<path class="st1" d="M0-88c43.1,0.2,52.9,38.3,80.9,38.7c32.2,0.5,53.2-35,81.2-35.2c28.7-0.2,40.6,30,81.2,30S284.4-88,325-88" />
				<path class="st1" d="M0-97.8C43.1-97.6,52.9-59.5,80.9-59c32.2,0.5,53.2-35,81.2-35.2c28.7-0.2,40.6,30,81.2,30s41-33.5,81.6-33.5
			" />
				<path class="st1" d="M0-107.5c43.1,0.2,52.9,38.3,80.9,38.7c32.2,0.5,53.2-35,81.2-35.2c28.7-0.2,40.6,30,81.2,30
			s41-33.5,81.6-33.5" />
				<path class="st1" d="M0-117.3c43.1,0.2,52.9,38.3,80.9,38.7c32.2,0.5,53.2-35,81.2-35.2c28.7-0.2,40.6,30,81.2,30
			s41-33.5,81.6-33.5" />
			</g>
		</pattern>
		<pattern x="-1422" y="-2" width="180.7" height="122" patternUnits="userSpaceOnUse" id="New_Pattern_2" viewBox="30.6 -152.5 180.7 122" style="overflow:visible;">
			<g>
				<rect x="30.6" y="-152.5" class="st0" width="180.7" height="122" />
				<g>
					<rect x="121.5" y="-60.5" class="st2" width="60" height="60" />
					<rect x="181.2" y="-60.5" class="st2" width="120" height="60" />
				</g>
				<g>
					<rect x="0.5" y="-60.5" class="st2" width="120" height="60" />
				</g>
				<g>
					<rect x="31.1" y="-121.5" class="st2" width="60" height="60" />
					<rect x="90.9" y="-121.5" class="st2" width="120" height="60" />
				</g>
				<g>
					<rect x="121.5" y="-182.5" class="st2" width="60" height="60" />
					<rect x="181.2" y="-182.5" class="st2" width="120" height="60" />
				</g>
				<g>
					<rect x="0.5" y="-182.5" class="st2" width="120" height="60" />
				</g>
			</g>
		</pattern>
		<pattern x="-1422" y="-2" width="818.9" height="817.2" patternUnits="userSpaceOnUse" id="New_Pattern_4" viewBox="0 -817.2 818.9 817.2" style="overflow:visible;">
			<g>
				<rect y="-817.2" class="st0" width="818.9" height="817.2" />
				<g>
					<path class="st3" d="M644.2-452.4c-1.2-3-1.7-6-1.7-9.1c0-3.1,0.6-6.1,1.7-9.1c1.2-3,2.9-5.6,5.3-8c2.3-2.3,5-4.1,8-5.3
				c3-1.2,6-1.8,9.1-1.8c3.1,0,6.1,0.6,9.1,1.7c3,1.2,5.6,2.9,8,5.3c2.4,2.4,4.1,5,5.3,8c1.2,3,1.7,6,1.7,9.1c0,3.1-0.6,6.1-1.8,9.1
				c-1.2,3-2.9,5.6-5.3,8c-2.4,2.4-5,4.1-8,5.3c-3,1.2-6,1.7-9.1,1.7c-3.1,0-6.1-0.6-9.1-1.7c-3-1.2-5.6-2.9-8-5.3
				C647.1-446.8,645.3-449.5,644.2-452.4z M671.1-473c-1.5-0.6-3.1-0.9-4.6-0.9c-1.6,0-3.1,0.3-4.6,0.9c-1.5,0.6-2.9,1.5-4.1,2.7
				c-1.2,1.2-2.1,2.6-2.7,4.1c-0.6,1.5-0.9,3.1-0.9,4.7c0,1.6,0.3,3.2,0.9,4.7c0.6,1.5,1.5,2.9,2.7,4.1c1.2,1.2,2.6,2.1,4.1,2.7
				c1.5,0.6,3.1,0.9,4.7,0.9c1.6,0,3.2-0.3,4.7-0.9c1.5-0.6,2.9-1.5,4.1-2.7c1.2-1.2,2.1-2.6,2.7-4.1c0.6-1.5,0.9-3.1,0.9-4.7
				c0-1.6-0.3-3.1-0.9-4.6c-0.6-1.5-1.5-2.9-2.7-4.1C674-471.5,672.7-472.4,671.1-473z" />
					<path class="st3" d="M750.9-342.6 M747.7-369.7c1.4-2.8,3.3-5.3,5.6-7.3c2.3-2,4.9-3.6,7.9-4.7c3-1.1,6.1-1.6,9.5-1.4
				c3.3,0.2,6.4,1,9.2,2.4c2.8,1.4,5.3,3.3,7.3,5.6c2,2.3,3.6,4.9,4.7,7.9c1.1,3,1.6,6.1,1.4,9.5c-0.2,3.2-0.9,6.2-2.2,8.9
				c-1.3,2.8-3.2,5.2-5.6,7.4l-7.7-8.6c2.4-2.3,3.7-5.1,3.9-8.4c0.1-1.7-0.1-3.3-0.7-4.9c-0.6-1.5-1.4-2.9-2.4-4s-2.3-2.1-3.7-2.9
				c-1.5-0.7-3-1.2-4.7-1.3s-3.3,0.1-4.9,0.7c-1.5,0.6-2.9,1.4-4,2.4c-1.2,1-2.1,2.3-2.9,3.7c-0.7,1.5-1.2,3-1.3,4.7
				c-0.2,3.3,0.8,6.2,2.9,8.7l-8.6,7.7c-2.1-2.4-3.7-5.1-4.7-8c-1-2.9-1.4-6-1.3-9.1C745.5-363.8,746.3-366.9,747.7-369.7z" />
					<path class="st3" d="M652.6-365.9v-0.2c0-2.5,0.5-4.8,1.4-7c1-2.2,2.2-4.1,3.9-5.7c1.6-1.6,3.5-2.9,5.7-3.8
				c2.2-0.9,4.5-1.4,7-1.4c2.5,0,4.8,0.5,7,1.4c2.2,0.9,4.1,2.2,5.7,3.8c1.6,1.6,2.9,3.5,3.9,5.7c1,2.2,1.4,4.5,1.4,7v0.2v8.1h-11.7
				v-8.2c0-1.8-0.6-3.3-1.8-4.5c-1.2-1.2-2.7-1.8-4.5-1.8c-1.8,0-3.3,0.6-4.5,1.8c-1.2,1.2-1.9,2.7-1.9,4.5v30h-11.6V-365.9z" />
					<path class="st3" d="M744.8-249.1c-1.2-3-1.7-6-1.7-9.1c0-3.1,0.6-6.1,1.7-9.1c1.2-3,2.9-5.6,5.3-8c2.3-2.3,5-4.1,8-5.3
				c3-1.2,6-1.8,9.1-1.8c3.1,0,6.1,0.6,9.1,1.7c3,1.2,5.6,2.9,8,5.3c2.4,2.4,4.1,5,5.3,8c1.2,3,1.7,6,1.7,9.1c0,3.1-0.6,6.1-1.8,9.1
				c-1.2,3-2.9,5.6-5.3,8c-2.4,2.4-5,4.1-8,5.3c-3,1.2-6,1.7-9.1,1.7c-3.1,0-6.1-0.6-9.1-1.7c-3-1.2-5.6-2.9-8-5.3
				C747.7-243.5,745.9-246.1,744.8-249.1z M771.8-269.6c-1.5-0.6-3.1-0.9-4.7-0.9c-1.6,0-3.1,0.3-4.6,0.9c-1.5,0.6-2.9,1.5-4.1,2.7
				c-1.2,1.2-2.1,2.6-2.7,4.1c-0.6,1.5-0.9,3.1-0.9,4.7c0,1.6,0.3,3.2,0.9,4.7c0.6,1.5,1.5,2.9,2.7,4.1c1.2,1.2,2.6,2.1,4.1,2.7
				c1.5,0.6,3.1,0.9,4.7,0.9c1.6,0,3.2-0.3,4.7-0.9c1.5-0.6,2.9-1.5,4.1-2.7c1.2-1.2,2.1-2.6,2.7-4.1c0.6-1.5,0.9-3.1,0.9-4.7
				c0-1.6-0.3-3.1-0.9-4.6c-0.6-1.5-1.5-2.9-2.7-4.1C774.7-268.1,773.3-269,771.8-269.6z" />
					<path class="st3" d="M762.9-141.9h-0.2c-2.5,0-4.8-0.5-7-1.4s-4.1-2.2-5.7-3.9c-1.6-1.6-2.9-3.5-3.8-5.7c-0.9-2.2-1.4-4.5-1.4-7
				c0-2.5,0.5-4.8,1.4-7c0.9-2.2,2.2-4.1,3.8-5.7c1.6-1.6,3.5-2.9,5.7-3.9s4.5-1.4,7-1.4h0.2h8.1v11.7h-8.2c-1.8,0-3.3,0.6-4.5,1.8
				c-1.2,1.2-1.8,2.7-1.8,4.5c0,1.8,0.6,3.3,1.8,4.5c1.2,1.2,2.7,1.9,4.5,1.9h30v11.6L762.9-141.9z" />
					<path class="st3" d="M644.2-247.4c-1.2-3-1.7-6-1.7-9.1c0-3.1,0.6-6.1,1.7-9.1c1.2-3,2.9-5.6,5.3-8c2.3-2.3,5-4.1,8-5.3
				c3-1.2,6-1.8,9.1-1.8c3.1,0,6.1,0.6,9.1,1.7c3,1.2,5.6,2.9,8,5.3c2.4,2.4,4.1,5,5.3,8c1.2,3,1.7,6,1.7,9.1c0,3.1-0.6,6.1-1.8,9.1
				c-1.2,3-2.9,5.6-5.3,8c-2.4,2.4-5,4.1-8,5.3c-3,1.2-6,1.7-9.1,1.7c-3.1,0-6.1-0.6-9.1-1.7c-3-1.2-5.6-2.9-8-5.3
				C647.1-241.7,645.4-244.4,644.2-247.4z M671.2-267.9c-1.5-0.6-3.1-0.9-4.7-0.9c-1.6,0-3.1,0.3-4.6,0.9c-1.5,0.6-2.9,1.5-4.1,2.7
				c-1.2,1.2-2.1,2.6-2.7,4.1c-0.6,1.5-0.9,3.1-0.9,4.7c0,1.6,0.3,3.2,0.9,4.7c0.6,1.5,1.5,2.9,2.7,4.1c1.2,1.2,2.6,2.1,4.1,2.7
				c1.5,0.6,3.1,0.9,4.7,0.9c1.6,0,3.2-0.3,4.7-0.9c1.5-0.6,2.9-1.5,4.1-2.7c1.2-1.2,2.1-2.6,2.7-4.1c0.6-1.5,0.9-3.1,0.9-4.7
				c0-1.6-0.3-3.1-0.9-4.6c-0.6-1.5-1.5-2.9-2.7-4.1C674.1-266.4,672.7-267.3,671.2-267.9z" />
					<path class="st3" d="M747.4-44.2c-1.2-3-1.7-6-1.7-9.1c0-3.1,0.6-6.1,1.7-9.1c1.2-3,2.9-5.6,5.3-8c2.3-2.3,5-4.1,8-5.3
				c3-1.2,6-1.8,9.1-1.8c3.1,0,6.1,0.6,9.1,1.7c3,1.2,5.6,2.9,8,5.3c2.4,2.4,4.1,5,5.3,8c1.2,3,1.7,6,1.7,9.1s-0.6,6.1-1.8,9.1
				c-1.2,3-2.9,5.6-5.3,8c-2.4,2.4-5,4.1-8,5.3c-3,1.2-6,1.7-9.1,1.7c-3.1,0-6.1-0.6-9.1-1.7c-3-1.2-5.6-2.9-8-5.3
				C750.4-38.6,748.6-41.3,747.4-44.2z M774.4-64.8c-1.5-0.6-3.1-0.9-4.6-0.9c-1.6,0-3.1,0.3-4.6,0.9c-1.5,0.6-2.9,1.5-4.1,2.7
				c-1.2,1.2-2.1,2.6-2.7,4.1c-0.6,1.5-0.9,3.1-0.9,4.7c0,1.6,0.3,3.2,0.9,4.7c0.6,1.5,1.5,2.9,2.7,4.1c1.2,1.2,2.6,2.1,4.1,2.7
				c1.5,0.6,3.1,0.9,4.7,0.9c1.6,0,3.2-0.3,4.7-0.9c1.5-0.6,2.9-1.5,4.1-2.7c1.2-1.2,2.1-2.6,2.7-4.1c0.6-1.5,0.9-3.1,0.9-4.7
				c0-1.6-0.3-3.1-0.9-4.7c-0.6-1.5-1.5-2.9-2.7-4.1C777.3-63.3,775.9-64.2,774.4-64.8z" />
					<path class="st3" d="M648.7-174.2 M675.6-178.9c2.9,1.3,5.4,3,7.6,5.2c2.2,2.2,3.9,4.7,5.2,7.6c1.3,2.9,1.9,6,1.9,9.4
				s-0.6,6.5-1.9,9.4c-1.3,2.9-3,5.4-5.2,7.6c-2.2,2.2-4.7,3.9-7.6,5.2c-2.9,1.3-6,1.9-9.4,1.9c-3.2,0-6.2-0.6-9.1-1.7
				c-2.9-1.2-5.4-2.9-7.7-5.2l8.2-8.2c2.4,2.3,5.3,3.4,8.6,3.4c1.7,0,3.3-0.3,4.8-1c1.5-0.7,2.8-1.5,3.9-2.7c1.1-1.1,2-2.4,2.7-3.9
				c0.7-1.5,1-3.1,1-4.8s-0.3-3.3-1-4.8c-0.7-1.5-1.5-2.8-2.7-3.9c-1.1-1.1-2.4-2-3.9-2.7c-1.5-0.7-3.1-1-4.8-1
				c-3.3,0-6.1,1.1-8.6,3.4l-8.2-8.2c2.3-2.2,4.8-3.9,7.7-5.1c2.9-1.2,5.9-1.8,9.1-1.8C669.6-180.8,672.7-180.2,675.6-178.9z" />
					<path class="st3" d="M744.1-452.5c-1.2-3-1.7-6-1.7-9.1c0-3.1,0.6-6.1,1.7-9.1c1.2-3,2.9-5.6,5.3-8c2.3-2.3,5-4.1,8-5.3
				c3-1.2,6-1.8,9.1-1.8c3.1,0,6.1,0.6,9.1,1.7c3,1.2,5.6,2.9,8,5.3c2.4,2.4,4.1,5,5.3,8c1.2,3,1.7,6,1.7,9.1s-0.6,6.1-1.8,9.1
				c-1.2,3-2.9,5.6-5.3,8c-2.4,2.4-5,4.1-8,5.3c-3,1.2-6,1.7-9.1,1.7c-3.1,0-6.1-0.6-9.1-1.7c-3-1.2-5.6-2.9-8-5.3
				C747-446.9,745.3-449.5,744.1-452.5z M771.1-473c-1.5-0.6-3.1-0.9-4.7-0.9c-1.6,0-3.1,0.3-4.6,0.9c-1.5,0.6-2.9,1.5-4.1,2.7
				c-1.2,1.2-2.1,2.6-2.7,4.1c-0.6,1.5-0.9,3.1-0.9,4.7c0,1.6,0.3,3.2,0.9,4.7c0.6,1.5,1.5,2.9,2.7,4.1c1.2,1.2,2.6,2.1,4.1,2.7
				c1.5,0.6,3.1,0.9,4.7,0.9c1.6,0,3.2-0.3,4.7-0.9c1.5-0.6,2.9-1.5,4.1-2.7c1.2-1.2,2.1-2.6,2.7-4.1c0.6-1.5,0.9-3.1,0.9-4.6
				c0-1.6-0.3-3.1-0.9-4.6c-0.6-1.5-1.5-2.9-2.7-4.1C774-471.5,772.6-472.4,771.1-473z" />
					<path class="st3" d="M643-653.8c-1.2-3-1.7-6-1.7-9.1c0-3.1,0.6-6.1,1.7-9.1c1.2-3,2.9-5.6,5.3-8c2.3-2.3,5-4.1,8-5.3
				c3-1.2,6-1.8,9.1-1.8c3.1,0,6.1,0.6,9.1,1.7c3,1.2,5.6,2.9,8,5.3c2.4,2.4,4.1,5,5.3,8c1.2,3,1.7,6,1.7,9.1c0,3.1-0.6,6.1-1.8,9.1
				c-1.2,3-2.9,5.6-5.3,8c-2.4,2.4-5,4.1-8,5.3c-3,1.2-6,1.7-9.1,1.7c-3.1,0-6.1-0.6-9.1-1.7c-3-1.2-5.6-2.9-8-5.3
				C646-648.2,644.2-650.9,643-653.8z M670-674.4c-1.5-0.6-3.1-0.9-4.6-0.9c-1.6,0-3.1,0.3-4.6,0.9c-1.5,0.6-2.9,1.5-4.1,2.7
				c-1.2,1.2-2.1,2.6-2.7,4.1c-0.6,1.5-0.9,3.1-0.9,4.7c0,1.6,0.3,3.2,0.9,4.7c0.6,1.5,1.5,2.9,2.7,4.1c1.2,1.2,2.6,2.1,4.1,2.7
				c1.5,0.6,3.1,0.9,4.7,0.9c1.6,0,3.2-0.3,4.7-0.9c1.5-0.6,2.9-1.5,4.1-2.7c1.2-1.2,2.1-2.6,2.7-4.1c0.6-1.5,0.9-3.1,0.9-4.6
				c0-1.6-0.3-3.1-0.9-4.7c-0.6-1.5-1.5-2.9-2.7-4.1C672.9-672.9,671.5-673.8,670-674.4z" />
					<path class="st3" d="M742.8-656.2c-1.2-3-1.7-6-1.7-9.1c0-3.1,0.6-6.1,1.7-9.1c1.2-3,2.9-5.6,5.3-8c2.3-2.3,5-4.1,8-5.3
				c3-1.2,6-1.8,9.1-1.8c3.1,0,6.1,0.6,9.1,1.7c3,1.2,5.6,2.9,8,5.3c2.4,2.4,4.1,5,5.3,8c1.2,3,1.7,6,1.7,9.1s-0.6,6.1-1.8,9.1
				c-1.2,3-2.9,5.6-5.3,8c-2.4,2.4-5,4.1-8,5.3c-3,1.2-6,1.7-9.1,1.7c-3.1,0-6.1-0.6-9.1-1.7c-3-1.2-5.6-2.9-8-5.3
				C745.7-650.5,744-653.2,742.8-656.2z M769.8-676.7c-1.5-0.6-3.1-0.9-4.7-0.9c-1.6,0-3.1,0.3-4.6,0.9c-1.5,0.6-2.9,1.5-4.1,2.7
				c-1.2,1.2-2.1,2.6-2.7,4.1c-0.6,1.5-0.9,3.1-0.9,4.7c0,1.6,0.3,3.2,0.9,4.7c0.6,1.5,1.5,2.9,2.7,4.1c1.2,1.2,2.6,2.1,4.1,2.7
				c1.5,0.6,3.1,0.9,4.7,0.9c1.6,0,3.2-0.3,4.7-0.9c1.5-0.6,2.9-1.5,4.1-2.7c1.2-1.2,2.1-2.6,2.7-4.1c0.6-1.5,0.9-3.1,0.9-4.7
				c0-1.6-0.3-3.1-0.9-4.7c-0.6-1.5-1.5-2.9-2.7-4.1C772.7-675.2,771.3-676.1,769.8-676.7z" />
					<path class="st3" d="M641.4-40.5c-1.2-3-1.7-6-1.7-9.1c0-3.1,0.6-6.1,1.7-9.1c1.2-3,2.9-5.6,5.3-8c2.3-2.3,5-4.1,8-5.3
				c3-1.2,6-1.8,9.1-1.8c3.1,0,6.1,0.6,9.1,1.7c3,1.2,5.6,2.9,8,5.3c2.4,2.4,4.1,5,5.3,8c1.2,3,1.7,6,1.7,9.1s-0.6,6.1-1.8,9.1
				c-1.2,3-2.9,5.6-5.3,8c-2.4,2.4-5,4.1-8,5.3c-3,1.2-6,1.7-9.1,1.7c-3.1,0-6.1-0.6-9.1-1.7c-3-1.2-5.6-2.9-8-5.3
				C644.3-34.9,642.6-37.6,641.4-40.5z M668.4-61.1c-1.5-0.6-3.1-0.9-4.7-0.9c-1.6,0-3.1,0.3-4.6,0.9c-1.5,0.6-2.9,1.5-4.1,2.7
				c-1.2,1.2-2.1,2.6-2.7,4.1c-0.6,1.5-0.9,3.1-0.9,4.7c0,1.6,0.3,3.2,0.9,4.7c0.6,1.5,1.5,2.9,2.7,4.1c1.2,1.2,2.6,2.1,4.1,2.7
				c1.5,0.6,3.1,0.9,4.7,0.9c1.6,0,3.2-0.3,4.7-0.9c1.5-0.6,2.9-1.5,4.1-2.7c1.2-1.2,2.1-2.6,2.7-4.1c0.6-1.5,0.9-3.1,0.9-4.7
				c0-1.6-0.3-3.1-0.9-4.7c-0.6-1.5-1.5-2.9-2.7-4.1C671.3-59.6,669.9-60.5,668.4-61.1z" />
					<path class="st3" d="M681.2-546.9 M654.4-542.2c-2.9-1.3-5.4-3-7.6-5.2c-2.2-2.2-3.9-4.7-5.2-7.6c-1.3-2.9-1.9-6-1.9-9.4
				s0.6-6.5,1.9-9.4c1.3-2.9,3-5.4,5.2-7.6c2.2-2.2,4.7-3.9,7.6-5.2c2.9-1.3,6-1.9,9.4-1.9c3.2,0,6.2,0.6,9.1,1.7
				c2.9,1.2,5.4,2.9,7.7,5.2l-8.2,8.2c-2.4-2.3-5.3-3.4-8.6-3.4c-1.7,0-3.3,0.3-4.8,1c-1.5,0.7-2.8,1.5-3.9,2.7
				c-1.1,1.1-2,2.4-2.7,3.9c-0.7,1.5-1,3.1-1,4.8s0.3,3.3,1,4.8c0.7,1.5,1.5,2.8,2.7,3.9c1.1,1.1,2.4,2,3.9,2.7c1.5,0.7,3.1,1,4.8,1
				c3.3,0,6.1-1.1,8.6-3.4l8.2,8.2c-2.3,2.2-4.8,3.9-7.7,5.1c-2.9,1.2-5.9,1.8-9.1,1.8C660.4-540.3,657.3-540.9,654.4-542.2z" />
					<path class="st3" d="M772.3-574.1h0.2c2.5,0,4.8,0.5,7,1.4c2.2,1,4.1,2.2,5.7,3.9c1.6,1.6,2.9,3.5,3.8,5.7c0.9,2.2,1.4,4.5,1.4,7
				c0,2.5-0.5,4.8-1.4,7c-0.9,2.2-2.2,4.1-3.8,5.7c-1.6,1.6-3.5,2.9-5.7,3.9c-2.2,1-4.5,1.4-7,1.4h-0.2h-8.1v-11.7h8.2
				c1.8,0,3.3-0.6,4.5-1.8c1.2-1.2,1.8-2.7,1.8-4.5c0-1.8-0.6-3.3-1.8-4.5c-1.2-1.2-2.7-1.9-4.5-1.9h-30v-11.6H772.3z" />
					<path class="st3" d="M783.6-781.3 M788.3-754.4c-1.3,2.9-3,5.4-5.2,7.6c-2.2,2.2-4.7,3.9-7.6,5.2c-2.9,1.3-6,1.9-9.4,1.9
				c-3.3,0-6.5-0.6-9.4-1.9c-2.9-1.3-5.4-3-7.6-5.2c-2.2-2.2-3.9-4.7-5.2-7.6c-1.3-2.9-1.9-6-1.9-9.4c0-3.2,0.6-6.2,1.7-9.1
				c1.2-2.9,2.9-5.4,5.2-7.7l8.2,8.2c-2.3,2.4-3.4,5.3-3.4,8.6c0,1.7,0.3,3.3,1,4.8c0.7,1.5,1.5,2.8,2.7,3.9c1.1,1.1,2.4,2,3.9,2.7
				c1.5,0.7,3.1,1,4.8,1c1.7,0,3.3-0.3,4.8-1c1.5-0.7,2.8-1.5,3.9-2.7c1.1-1.1,2-2.4,2.7-3.9c0.7-1.5,1-3.1,1-4.8
				c0-3.3-1.1-6.1-3.4-8.6l8.2-8.2c2.2,2.3,3.9,4.8,5.1,7.7c1.2,2.9,1.8,5.9,1.8,9.1C790.2-760.4,789.6-757.3,788.3-754.4z" />
					<path class="st3" d="M675.9-761.2v0.2c0,2.5-0.5,4.8-1.4,7c-1,2.2-2.2,4.1-3.9,5.7c-1.6,1.6-3.5,2.9-5.7,3.8
				c-2.2,0.9-4.5,1.4-7,1.4c-2.5,0-4.8-0.5-7-1.4c-2.2-0.9-4.1-2.2-5.7-3.8c-1.6-1.6-2.9-3.5-3.9-5.7c-1-2.2-1.4-4.5-1.4-7v-0.2
				v-8.1h11.7v8.2c0,1.8,0.6,3.3,1.8,4.5c1.2,1.2,2.7,1.8,4.5,1.8c1.8,0,3.3-0.6,4.5-1.8c1.2-1.2,1.9-2.7,1.9-4.5v-30h11.6V-761.2z" />
				</g>
				<g>
					<path class="st3" d="M234.7-452.4c-1.2-3-1.7-6-1.7-9.1c0-3.1,0.6-6.1,1.7-9.1c1.2-3,2.9-5.6,5.3-8c2.3-2.3,5-4.1,8-5.3
				c3-1.2,6-1.8,9.1-1.8c3.1,0,6.1,0.6,9.1,1.7c3,1.2,5.6,2.9,8,5.3c2.4,2.4,4.1,5,5.3,8c1.2,3,1.7,6,1.7,9.1c0,3.1-0.6,6.1-1.8,9.1
				c-1.2,3-2.9,5.6-5.3,8c-2.4,2.4-5,4.1-8,5.3c-3,1.2-6,1.7-9.1,1.7c-3.1,0-6.1-0.6-9.1-1.7c-3-1.2-5.6-2.9-8-5.3
				C237.6-446.8,235.9-449.5,234.7-452.4z M261.7-473c-1.5-0.6-3.1-0.9-4.6-0.9c-1.6,0-3.1,0.3-4.6,0.9c-1.5,0.6-2.9,1.5-4.1,2.7
				c-1.2,1.2-2.1,2.6-2.7,4.1c-0.6,1.5-0.9,3.1-0.9,4.7c0,1.6,0.3,3.2,0.9,4.7c0.6,1.5,1.5,2.9,2.7,4.1c1.2,1.2,2.6,2.1,4.1,2.7
				c1.5,0.6,3.1,0.9,4.7,0.9c1.6,0,3.2-0.3,4.7-0.9c1.5-0.6,2.9-1.5,4.1-2.7s2.1-2.6,2.7-4.1c0.6-1.5,0.9-3.1,0.9-4.7
				c0-1.6-0.3-3.1-0.9-4.6c-0.6-1.5-1.5-2.9-2.7-4.1S263.2-472.4,261.7-473z" />
					<path class="st3" d="M341.5-342.6 M338.3-369.7c1.4-2.8,3.3-5.3,5.6-7.3c2.3-2,4.9-3.6,7.9-4.7c3-1.1,6.1-1.6,9.5-1.4
				c3.3,0.2,6.4,1,9.2,2.4c2.8,1.4,5.3,3.3,7.3,5.6c2,2.3,3.6,4.9,4.7,7.9c1.1,3,1.6,6.1,1.4,9.5c-0.2,3.2-0.9,6.2-2.2,8.9
				c-1.3,2.8-3.2,5.2-5.6,7.4l-7.7-8.6c2.4-2.3,3.7-5.1,3.9-8.4c0.1-1.7-0.1-3.3-0.7-4.9c-0.6-1.5-1.4-2.9-2.4-4s-2.3-2.1-3.7-2.9
				c-1.5-0.7-3-1.2-4.7-1.3s-3.3,0.1-4.9,0.7c-1.5,0.6-2.9,1.4-4,2.4c-1.2,1-2.1,2.3-2.9,3.7c-0.7,1.5-1.2,3-1.3,4.7
				c-0.2,3.3,0.8,6.2,2.9,8.7l-8.6,7.7c-2.1-2.4-3.7-5.1-4.7-8c-1-2.9-1.4-6-1.3-9.1C336.1-363.8,336.9-366.9,338.3-369.7z" />
					<path class="st3" d="M439.3-247.8c-1.2-3-1.7-6-1.7-9.1c0-3.1,0.6-6.1,1.7-9.1c1.2-3,2.9-5.6,5.3-8c2.3-2.3,5-4.1,8-5.3
				c3-1.2,6-1.8,9.1-1.8c3.1,0,6.1,0.6,9.1,1.7c3,1.2,5.6,2.9,8,5.3c2.4,2.4,4.1,5,5.3,8c1.2,3,1.7,6,1.7,9.1c0,3.1-0.6,6.1-1.8,9.1
				c-1.2,3-2.9,5.6-5.3,8c-2.4,2.4-5,4.1-8,5.3c-3,1.2-6,1.7-9.1,1.7c-3.1,0-6.1-0.6-9.1-1.7c-3-1.2-5.6-2.9-8-5.3
				C442.2-242.2,440.5-244.9,439.3-247.8z M466.3-268.4c-1.5-0.6-3.1-0.9-4.7-0.9c-1.6,0-3.1,0.3-4.6,0.9c-1.5,0.6-2.9,1.5-4.1,2.7
				c-1.2,1.2-2.1,2.6-2.7,4.1c-0.6,1.5-0.9,3.1-0.9,4.7c0,1.6,0.3,3.2,0.9,4.7c0.6,1.5,1.5,2.9,2.7,4.1c1.2,1.2,2.6,2.1,4.1,2.7
				c1.5,0.6,3.1,0.9,4.7,0.9c1.6,0,3.2-0.3,4.7-0.9c1.5-0.6,2.9-1.5,4.1-2.7c1.2-1.2,2.1-2.6,2.7-4.1c0.6-1.5,0.9-3.1,0.9-4.7
				c0-1.6-0.3-3.1-0.9-4.6c-0.6-1.5-1.5-2.9-2.7-4.1C469.2-266.9,467.8-267.8,466.3-268.4z" />
					<path class="st3" d="M243.2-365.9v-0.2c0-2.5,0.5-4.8,1.4-7c1-2.2,2.2-4.1,3.9-5.7c1.6-1.6,3.5-2.9,5.7-3.8
				c2.2-0.9,4.5-1.4,7-1.4c2.5,0,4.8,0.5,7,1.4c2.2,0.9,4.1,2.2,5.7,3.8c1.6,1.6,2.9,3.5,3.9,5.7c1,2.2,1.4,4.5,1.4,7v0.2v8.1h-11.7
				v-8.2c0-1.8-0.6-3.3-1.8-4.5c-1.2-1.2-2.7-1.8-4.5-1.8c-1.8,0-3.3,0.6-4.5,1.8c-1.2,1.2-1.9,2.7-1.9,4.5l0,30h-11.6V-365.9z" />
					<path class="st3" d="M335.3-249.1c-1.2-3-1.7-6-1.7-9.1c0-3.1,0.6-6.1,1.7-9.1c1.2-3,2.9-5.6,5.3-8c2.3-2.3,5-4.1,8-5.3
				c3-1.2,6-1.8,9.1-1.8c3.1,0,6.1,0.6,9.1,1.7c3,1.2,5.6,2.9,8,5.3c2.4,2.4,4.1,5,5.3,8c1.2,3,1.7,6,1.7,9.1c0,3.1-0.6,6.1-1.8,9.1
				c-1.2,3-2.9,5.6-5.3,8c-2.4,2.4-5,4.1-8,5.3c-3,1.2-6,1.7-9.1,1.7c-3.1,0-6.1-0.6-9.1-1.7c-3-1.2-5.6-2.9-8-5.3
				C338.3-243.5,336.5-246.1,335.3-249.1z M362.3-269.6c-1.5-0.6-3.1-0.9-4.6-0.9c-1.6,0-3.1,0.3-4.6,0.9c-1.5,0.6-2.9,1.5-4.1,2.7
				c-1.2,1.2-2.1,2.6-2.7,4.1c-0.6,1.5-0.9,3.1-0.9,4.7c0,1.6,0.3,3.2,0.9,4.7c0.6,1.5,1.5,2.9,2.7,4.1c1.2,1.2,2.6,2.1,4.1,2.7
				c1.5,0.6,3.1,0.9,4.7,0.9c1.6,0,3.2-0.3,4.7-0.9c1.5-0.6,2.9-1.5,4.1-2.7c1.2-1.2,2.1-2.6,2.7-4.1c0.6-1.5,0.9-3.1,0.9-4.7
				c0-1.6-0.3-3.1-0.9-4.6c-0.6-1.5-1.5-2.9-2.7-4.1C365.2-268.1,363.8-269,362.3-269.6z" />
					<path class="st3" d="M478.7-137.2 M451.8-132.5c-2.9-1.3-5.4-3-7.6-5.2c-2.2-2.2-3.9-4.7-5.2-7.6c-1.3-2.9-1.9-6-1.9-9.4
				c0-3.3,0.6-6.5,1.9-9.4c1.3-2.9,3-5.4,5.2-7.6c2.2-2.2,4.7-3.9,7.6-5.2c2.9-1.3,6-1.9,9.4-1.9c3.2,0,6.2,0.6,9.1,1.7
				c2.9,1.2,5.4,2.9,7.7,5.2l-8.2,8.2c-2.4-2.3-5.3-3.4-8.6-3.4c-1.7,0-3.3,0.3-4.8,1c-1.5,0.7-2.8,1.5-3.9,2.7
				c-1.1,1.1-2,2.4-2.7,3.9c-0.7,1.5-1,3.1-1,4.8c0,1.7,0.3,3.3,1,4.8c0.7,1.5,1.5,2.8,2.7,3.9c1.1,1.1,2.4,2,3.9,2.7
				c1.5,0.7,3.1,1,4.8,1c3.3,0,6.1-1.1,8.6-3.4l8.2,8.2c-2.3,2.2-4.8,3.9-7.7,5.1c-2.9,1.2-5.9,1.8-9.1,1.8
				C457.8-130.6,454.7-131.3,451.8-132.5z" />
					<path class="st3" d="M353.4-141.9h-0.2c-2.5,0-4.8-0.5-7-1.4c-2.2-1-4.1-2.2-5.7-3.9c-1.6-1.6-2.9-3.5-3.8-5.7
				c-0.9-2.2-1.4-4.5-1.4-7c0-2.5,0.5-4.8,1.4-7c0.9-2.2,2.2-4.1,3.8-5.7c1.6-1.6,3.5-2.9,5.7-3.9c2.2-1,4.5-1.4,7-1.4h0.2h8.1v11.7
				h-8.2c-1.8,0-3.3,0.6-4.5,1.8c-1.2,1.2-1.8,2.7-1.8,4.5c0,1.8,0.6,3.3,1.8,4.5c1.2,1.2,2.7,1.9,4.5,1.9h30v11.6L353.4-141.9z" />
					<path class="st3" d="M234.8-247.4c-1.2-3-1.7-6-1.7-9.1c0-3.1,0.6-6.1,1.7-9.1c1.2-3,2.9-5.6,5.3-8c2.3-2.3,5-4.1,8-5.3
				c3-1.2,6-1.8,9.1-1.8c3.1,0,6.1,0.6,9.1,1.7c3,1.2,5.6,2.9,8,5.3c2.4,2.4,4.1,5,5.3,8c1.2,3,1.7,6,1.7,9.1c0,3.1-0.6,6.1-1.8,9.1
				c-1.2,3-2.9,5.6-5.3,8c-2.4,2.4-5,4.1-8,5.3c-3,1.2-6,1.7-9.1,1.7c-3.1,0-6.1-0.6-9.1-1.7c-3-1.2-5.6-2.9-8-5.3
				C237.7-241.7,235.9-244.4,234.8-247.4z M261.8-267.9c-1.5-0.6-3.1-0.9-4.7-0.9c-1.6,0-3.1,0.3-4.6,0.9c-1.5,0.6-2.9,1.5-4.1,2.7
				c-1.2,1.2-2.1,2.6-2.7,4.1c-0.6,1.5-0.9,3.1-0.9,4.7c0,1.6,0.3,3.2,0.9,4.7c0.6,1.5,1.5,2.9,2.7,4.1c1.2,1.2,2.6,2.1,4.1,2.7
				c1.5,0.6,3.1,0.9,4.7,0.9c1.6,0,3.2-0.3,4.7-0.9c1.5-0.6,2.9-1.5,4.1-2.7c1.2-1.2,2.1-2.6,2.7-4.1c0.6-1.5,0.9-3.1,0.9-4.7
				c0-1.6-0.3-3.1-0.9-4.6c-0.6-1.5-1.5-2.9-2.7-4.1C264.6-266.4,263.3-267.3,261.8-267.9z" />
					<path class="st3" d="M539.3-45.1c-1.2-3-1.7-6-1.7-9.1c0-3.1,0.6-6.1,1.7-9.1c1.2-3,2.9-5.6,5.3-8c2.3-2.3,5-4.1,8-5.3
				c3-1.2,6-1.8,9.1-1.8c3.1,0,6.1,0.6,9.1,1.7c3,1.2,5.6,2.9,8,5.3c2.4,2.4,4.1,5,5.3,8c1.2,3,1.7,6,1.7,9.1s-0.6,6.1-1.8,9.1
				c-1.2,3-2.9,5.6-5.3,8c-2.4,2.4-5,4.1-8,5.3c-3,1.2-6,1.7-9.1,1.7c-3.1,0-6.1-0.6-9.1-1.7c-3-1.2-5.6-2.9-8-5.3
				C542.2-39.5,540.4-42.2,539.3-45.1z M566.3-65.7c-1.5-0.6-3.1-0.9-4.6-0.9c-1.6,0-3.1,0.3-4.6,0.9c-1.5,0.6-2.9,1.5-4.1,2.7
				c-1.2,1.2-2.1,2.6-2.7,4.1c-0.6,1.5-0.9,3.1-0.9,4.7c0,1.6,0.3,3.2,0.9,4.7c0.6,1.5,1.5,2.9,2.7,4.1c1.2,1.2,2.6,2.1,4.1,2.7
				c1.5,0.6,3.1,0.9,4.7,0.9c1.6,0,3.2-0.3,4.7-0.9c1.5-0.6,2.9-1.5,4.1-2.7c1.2-1.2,2.1-2.6,2.7-4.1c0.6-1.5,0.9-3.1,0.9-4.7
				c0-1.6-0.3-3.1-0.9-4.7c-0.6-1.5-1.5-2.9-2.7-4.1C569.2-64.2,567.8-65.1,566.3-65.7z" />
					<path class="st3" d="M570.6-166.1h0.2c2.5,0,4.8,0.5,7,1.4c2.2,1,4.1,2.2,5.7,3.9c1.6,1.6,2.9,3.5,3.8,5.7c0.9,2.2,1.4,4.5,1.4,7
				c0,2.5-0.5,4.8-1.4,7c-0.9,2.2-2.2,4.1-3.8,5.7c-1.6,1.6-3.5,2.9-5.7,3.9c-2.2,1-4.5,1.4-7,1.4h-0.2h-8.1v-11.7h8.2
				c1.8,0,3.3-0.6,4.5-1.8s1.8-2.7,1.8-4.5c0-1.8-0.6-3.3-1.8-4.5c-1.2-1.2-2.7-1.9-4.5-1.9h-30v-11.6H570.6z" />
					<path class="st3" d="M338-44.2c-1.2-3-1.7-6-1.7-9.1c0-3.1,0.6-6.1,1.7-9.1c1.2-3,2.9-5.6,5.3-8c2.3-2.3,5-4.1,8-5.3
				c3-1.2,6-1.8,9.1-1.8c3.1,0,6.1,0.6,9.1,1.7c3,1.2,5.6,2.9,8,5.3c2.4,2.4,4.1,5,5.3,8c1.2,3,1.7,6,1.7,9.1s-0.6,6.1-1.8,9.1
				c-1.2,3-2.9,5.6-5.3,8c-2.4,2.4-5,4.1-8,5.3c-3,1.2-6,1.7-9.1,1.7c-3.1,0-6.1-0.6-9.1-1.7c-3-1.2-5.6-2.9-8-5.3
				C340.9-38.6,339.1-41.3,338-44.2z M365-64.8c-1.5-0.6-3.1-0.9-4.7-0.9c-1.6,0-3.1,0.3-4.6,0.9c-1.5,0.6-2.9,1.5-4.1,2.7
				s-2.1,2.6-2.7,4.1c-0.6,1.5-0.9,3.1-0.9,4.7c0,1.6,0.3,3.2,0.9,4.7c0.6,1.5,1.5,2.9,2.7,4.1c1.2,1.2,2.6,2.1,4.1,2.7
				c1.5,0.6,3.1,0.9,4.7,0.9c1.6,0,3.2-0.3,4.7-0.9c1.5-0.6,2.9-1.5,4.1-2.7s2.1-2.6,2.7-4.1c0.6-1.5,0.9-3.1,0.9-4.7
				c0-1.6-0.3-3.1-0.9-4.7c-0.6-1.5-1.5-2.9-2.7-4.1C367.9-63.3,366.5-64.2,365-64.8z" />
					<path class="st3" d="M239.3-174.2 M266.2-178.9c2.9,1.3,5.4,3,7.6,5.2c2.2,2.2,3.9,4.7,5.2,7.6c1.3,2.9,1.9,6,1.9,9.4
				s-0.6,6.5-1.9,9.4c-1.3,2.9-3,5.4-5.2,7.6c-2.2,2.2-4.7,3.9-7.6,5.2c-2.9,1.3-6,1.9-9.4,1.9c-3.2,0-6.2-0.6-9.1-1.7
				c-2.9-1.2-5.4-2.9-7.7-5.2l8.2-8.2c2.4,2.3,5.3,3.4,8.6,3.4c1.7,0,3.3-0.3,4.8-1c1.5-0.7,2.8-1.5,3.9-2.7c1.1-1.1,2-2.4,2.7-3.9
				c0.7-1.5,1-3.1,1-4.8s-0.3-3.3-1-4.8c-0.7-1.5-1.5-2.8-2.7-3.9c-1.1-1.1-2.4-2-3.9-2.7c-1.5-0.7-3.1-1-4.8-1
				c-3.3,0-6.1,1.1-8.6,3.4l-8.2-8.2c2.3-2.2,4.8-3.9,7.7-5.1c2.9-1.2,5.9-1.8,9.1-1.8C260.1-180.8,263.3-180.2,266.2-178.9z" />
					<path class="st3" d="M440-42.1c-1.2-3-1.7-6-1.7-9.1c0-3.1,0.6-6.1,1.7-9.1c1.2-3,2.9-5.6,5.3-8c2.3-2.3,5-4.1,8-5.3
				c3-1.2,6-1.8,9.1-1.8c3.1,0,6.1,0.6,9.1,1.7c3,1.2,5.6,2.9,8,5.3c2.4,2.4,4.1,5,5.3,8c1.2,3,1.7,6,1.7,9.1s-0.6,6.1-1.8,9.1
				c-1.2,3-2.9,5.6-5.3,8c-2.4,2.4-5,4.1-8,5.3c-3,1.2-6,1.7-9.1,1.7c-3.1,0-6.1-0.6-9.1-1.7c-3-1.2-5.6-2.9-8-5.3
				C443-36.5,441.2-39.1,440-42.1z M467-62.6c-1.5-0.6-3.1-0.9-4.6-0.9c-1.6,0-3.1,0.3-4.6,0.9c-1.5,0.6-2.9,1.5-4.1,2.7
				c-1.2,1.2-2.1,2.6-2.7,4.1c-0.6,1.5-0.9,3.1-0.9,4.7c0,1.6,0.3,3.2,0.9,4.7c0.6,1.5,1.5,2.9,2.7,4.1s2.6,2.1,4.1,2.7
				c1.5,0.6,3.1,0.9,4.7,0.9c1.6,0,3.2-0.3,4.7-0.9c1.5-0.6,2.9-1.5,4.1-2.7c1.2-1.2,2.1-2.6,2.7-4.1c0.6-1.5,0.9-3.1,0.9-4.7
				c0-1.6-0.3-3.1-0.9-4.7c-0.6-1.5-1.5-2.9-2.7-4.1C469.9-61.1,468.6-62,467-62.6z" />
					<path class="st3" d="M334.7-452.5c-1.2-3-1.7-6-1.7-9.1c0-3.1,0.6-6.1,1.7-9.1c1.2-3,2.9-5.6,5.3-8c2.3-2.3,5-4.1,8-5.3
				c3-1.2,6-1.8,9.1-1.8c3.1,0,6.1,0.6,9.1,1.7c3,1.2,5.6,2.9,8,5.3c2.4,2.4,4.1,5,5.3,8c1.2,3,1.7,6,1.7,9.1s-0.6,6.1-1.8,9.1
				c-1.2,3-2.9,5.6-5.3,8c-2.4,2.4-5,4.1-8,5.3c-3,1.2-6,1.7-9.1,1.7c-3.1,0-6.1-0.6-9.1-1.7c-3-1.2-5.6-2.9-8-5.3
				C337.6-446.9,335.8-449.5,334.7-452.5z M361.7-473c-1.5-0.6-3.1-0.9-4.6-0.9c-1.6,0-3.1,0.3-4.6,0.9c-1.5,0.6-2.9,1.5-4.1,2.7
				c-1.2,1.2-2.1,2.6-2.7,4.1c-0.6,1.5-0.9,3.1-0.9,4.7c0,1.6,0.3,3.2,0.9,4.7c0.6,1.5,1.5,2.9,2.7,4.1s2.6,2.1,4.1,2.7
				c1.5,0.6,3.1,0.9,4.7,0.9c1.6,0,3.2-0.3,4.7-0.9c1.5-0.6,2.9-1.5,4.1-2.7c1.2-1.2,2.1-2.6,2.7-4.1c0.6-1.5,0.9-3.1,0.9-4.6
				c0-1.6-0.3-3.1-0.9-4.6c-0.6-1.5-1.5-2.9-2.7-4.1C364.5-471.5,363.2-472.4,361.7-473z" />
					<path class="st3" d="M540.4-246.7c-1.2-3-1.7-6-1.7-9.1c0-3.1,0.6-6.1,1.7-9.1c1.2-3,2.9-5.6,5.3-8c2.3-2.3,5-4.1,8-5.3
				c3-1.2,6-1.8,9.1-1.8c3.1,0,6.1,0.6,9.1,1.7c3,1.2,5.6,2.9,8,5.3c2.4,2.4,4.1,5,5.3,8c1.2,3,1.7,6,1.7,9.1s-0.6,6.1-1.8,9.1
				c-1.2,3-2.9,5.6-5.3,8c-2.4,2.4-5,4.1-8,5.3c-3,1.2-6,1.7-9.1,1.7c-3.1,0-6.1-0.6-9.1-1.7c-3-1.2-5.6-2.9-8-5.3
				C543.4-241.1,541.6-243.7,540.4-246.7z M567.4-267.2c-1.5-0.6-3.1-0.9-4.7-0.9c-1.6,0-3.1,0.3-4.6,0.9c-1.5,0.6-2.9,1.5-4.1,2.7
				c-1.2,1.2-2.1,2.6-2.7,4.1c-0.6,1.5-0.9,3.1-0.9,4.7c0,1.6,0.3,3.2,0.9,4.7c0.6,1.5,1.5,2.9,2.7,4.1c1.2,1.2,2.6,2.1,4.1,2.7
				c1.5,0.6,3.1,0.9,4.7,0.9c1.6,0,3.2-0.3,4.7-0.9c1.5-0.6,2.9-1.5,4.1-2.7c1.2-1.2,2.1-2.6,2.7-4.1c0.6-1.5,0.9-3.1,0.9-4.6
				c0-1.6-0.3-3.1-0.9-4.7c-0.6-1.5-1.5-2.9-2.7-4.1C570.3-265.7,569-266.6,567.4-267.2z" />
					<path class="st3" d="M233.6-653.8c-1.2-3-1.7-6-1.7-9.1c0-3.1,0.6-6.1,1.7-9.1c1.2-3,2.9-5.6,5.3-8c2.3-2.3,5-4.1,8-5.3
				c3-1.2,6-1.8,9.1-1.8c3.1,0,6.1,0.6,9.1,1.7c3,1.2,5.6,2.9,8,5.3c2.4,2.4,4.1,5,5.3,8c1.2,3,1.7,6,1.7,9.1c0,3.1-0.6,6.1-1.8,9.1
				c-1.2,3-2.9,5.6-5.3,8c-2.4,2.4-5,4.1-8,5.3c-3,1.2-6,1.7-9.1,1.7c-3.1,0-6.1-0.6-9.1-1.7c-3-1.2-5.6-2.9-8-5.3
				C236.5-648.2,234.8-650.9,233.6-653.8z M260.6-674.4c-1.5-0.6-3.1-0.9-4.7-0.9c-1.6,0-3.1,0.3-4.6,0.9c-1.5,0.6-2.9,1.5-4.1,2.7
				c-1.2,1.2-2.1,2.6-2.7,4.1c-0.6,1.5-0.9,3.1-0.9,4.7c0,1.6,0.3,3.2,0.9,4.7c0.6,1.5,1.5,2.9,2.7,4.1c1.2,1.2,2.6,2.1,4.1,2.7
				c1.5,0.6,3.1,0.9,4.7,0.9c1.6,0,3.2-0.3,4.7-0.9c1.5-0.6,2.9-1.5,4.1-2.7c1.2-1.2,2.1-2.6,2.7-4.1c0.6-1.5,0.9-3.1,0.9-4.6
				c0-1.6-0.3-3.1-0.9-4.7c-0.6-1.5-1.5-2.9-2.7-4.1C263.5-672.9,262.1-673.8,260.6-674.4z" />
					<path class="st3" d="M437.4-450c-1.2-3-1.7-6-1.7-9.1c0-3.1,0.6-6.1,1.7-9.1c1.2-3,2.9-5.6,5.3-8c2.3-2.3,5-4.1,8-5.3
				c3-1.2,6-1.8,9.1-1.8c3.1,0,6.1,0.6,9.1,1.7c3,1.2,5.6,2.9,8,5.3c2.4,2.4,4.1,5,5.3,8c1.2,3,1.7,6,1.7,9.1s-0.6,6.1-1.8,9.1
				c-1.2,3-2.9,5.6-5.3,8c-2.4,2.4-5,4.1-8,5.3c-3,1.2-6,1.7-9.1,1.7c-3.1,0-6.1-0.6-9.1-1.7c-3-1.2-5.6-2.9-8-5.3
				C440.3-444.4,438.6-447,437.4-450z M464.4-470.5c-1.5-0.6-3.1-0.9-4.7-0.9c-1.6,0-3.1,0.3-4.6,0.9c-1.5,0.6-2.9,1.5-4.1,2.7
				c-1.2,1.2-2.1,2.6-2.7,4.1c-0.6,1.5-0.9,3.1-0.9,4.7c0,1.6,0.3,3.2,0.9,4.7c0.6,1.5,1.5,2.9,2.7,4.1c1.2,1.2,2.6,2.1,4.1,2.7
				c1.5,0.6,3.1,0.9,4.7,0.9c1.6,0,3.2-0.3,4.7-0.9c1.5-0.6,2.9-1.5,4.1-2.7c1.2-1.2,2.1-2.6,2.7-4.1c0.6-1.5,0.9-3.1,0.9-4.6
				c0-1.6-0.3-3.1-0.9-4.6c-0.6-1.5-1.5-2.9-2.7-4.1C467.3-469,465.9-469.9,464.4-470.5z" />
					<path class="st3" d="M537.9-451.6c-1.2-3-1.7-6-1.7-9.1c0-3.1,0.6-6.1,1.7-9.1c1.2-3,2.9-5.6,5.3-8c2.3-2.3,5-4.1,8-5.3
				c3-1.2,6-1.8,9.1-1.8c3.1,0,6.1,0.6,9.1,1.7c3,1.2,5.6,2.9,8,5.3c2.4,2.4,4.1,5,5.3,8c1.2,3,1.7,6,1.7,9.1c0,3.1-0.6,6.1-1.8,9.1
				c-1.2,3-2.9,5.6-5.3,8c-2.4,2.4-5,4.1-8,5.3c-3,1.2-6,1.7-9.1,1.7c-3.1,0-6.1-0.6-9.1-1.7c-3-1.2-5.6-2.9-8-5.3
				C540.8-446,539.1-448.7,537.9-451.6z M564.9-472.2c-1.5-0.6-3.1-0.9-4.7-0.9c-1.6,0-3.1,0.3-4.6,0.9c-1.5,0.6-2.9,1.5-4.1,2.7
				c-1.2,1.2-2.1,2.6-2.7,4.1c-0.6,1.5-0.9,3.1-0.9,4.7c0,1.6,0.3,3.2,0.9,4.7c0.6,1.5,1.5,2.9,2.7,4.1c1.2,1.2,2.6,2.1,4.1,2.7
				c1.5,0.6,3.1,0.9,4.7,0.9c1.6,0,3.2-0.3,4.7-0.9c1.5-0.6,2.9-1.5,4.1-2.7c1.2-1.2,2.1-2.6,2.7-4.1c0.6-1.5,0.9-3.1,0.9-4.6
				c0-1.6-0.3-3.1-0.9-4.7c-0.6-1.5-1.5-2.9-2.7-4.1C567.8-470.7,566.4-471.6,564.9-472.2z" />
					<path class="st3" d="M538.6-656.4c-1.2-3-1.7-6-1.7-9.1c0-3.1,0.6-6.1,1.7-9.1c1.2-3,2.9-5.6,5.3-8c2.3-2.3,5-4.1,8-5.3
				c3-1.2,6-1.8,9.1-1.8c3.1,0,6.1,0.6,9.1,1.7c3,1.2,5.6,2.9,8,5.3c2.4,2.4,4.1,5,5.3,8c1.2,3,1.7,6,1.7,9.1s-0.6,6.1-1.8,9.1
				c-1.2,3-2.9,5.6-5.3,8c-2.4,2.4-5,4.1-8,5.3c-3,1.2-6,1.7-9.1,1.7c-3.1,0-6.1-0.6-9.1-1.7c-3-1.2-5.6-2.9-8-5.3
				C541.5-650.8,539.7-653.4,538.6-656.4z M565.6-676.9c-1.5-0.6-3.1-0.9-4.7-0.9c-1.6,0-3.1,0.3-4.6,0.9c-1.5,0.6-2.9,1.5-4.1,2.7
				c-1.2,1.2-2.1,2.6-2.7,4.1c-0.6,1.5-0.9,3.1-0.9,4.7c0,1.6,0.3,3.2,0.9,4.7c0.6,1.5,1.5,2.9,2.7,4.1c1.2,1.2,2.6,2.1,4.1,2.7
				c1.5,0.6,3.1,0.9,4.7,0.9c1.6,0,3.2-0.3,4.7-0.9c1.5-0.6,2.9-1.5,4.1-2.7c1.2-1.2,2.1-2.6,2.7-4.1c0.6-1.5,0.9-3.1,0.9-4.7
				c0-1.6-0.3-3.1-0.9-4.7c-0.6-1.5-1.5-2.9-2.7-4.1C568.4-675.4,567.1-676.3,565.6-676.9z" />
					<path class="st3" d="M435.9-653.7c-1.2-3-1.7-6-1.7-9.1c0-3.1,0.6-6.1,1.7-9.1c1.2-3,2.9-5.6,5.3-8c2.3-2.3,5-4.1,8-5.3
				c3-1.2,6-1.8,9.1-1.8c3.1,0,6.1,0.6,9.1,1.7c3,1.2,5.6,2.9,8,5.3c2.4,2.4,4.1,5,5.3,8c1.2,3,1.7,6,1.7,9.1c0,3.1-0.6,6.1-1.8,9.1
				c-1.2,3-2.9,5.6-5.3,8c-2.4,2.4-5,4.1-8,5.3c-3,1.2-6,1.7-9.1,1.7c-3.1,0-6.1-0.6-9.1-1.7c-3-1.2-5.6-2.9-8-5.3
				C438.9-648,437.1-650.7,435.9-653.7z M462.9-674.2c-1.5-0.6-3.1-0.9-4.6-0.9c-1.6,0-3.1,0.3-4.6,0.9c-1.5,0.6-2.9,1.5-4.1,2.7
				c-1.2,1.2-2.1,2.6-2.7,4.1c-0.6,1.5-0.9,3.1-0.9,4.7c0,1.6,0.3,3.2,0.9,4.7c0.6,1.5,1.5,2.9,2.7,4.1c1.2,1.2,2.6,2.1,4.1,2.7
				c1.5,0.6,3.1,0.9,4.7,0.9c1.6,0,3.2-0.3,4.7-0.9c1.5-0.6,2.9-1.5,4.1-2.7c1.2-1.2,2.1-2.6,2.7-4.1c0.6-1.5,0.9-3.1,0.9-4.6
				c0-1.6-0.3-3.1-0.9-4.7c-0.6-1.5-1.5-2.9-2.7-4.1C465.8-672.7,464.5-673.6,462.9-674.2z" />
					<path class="st3" d="M333.4-656.2c-1.2-3-1.7-6-1.7-9.1c0-3.1,0.6-6.1,1.7-9.1c1.2-3,2.9-5.6,5.3-8c2.3-2.3,5-4.1,8-5.3
				c3-1.2,6-1.8,9.1-1.8c3.1,0,6.1,0.6,9.1,1.7c3,1.2,5.6,2.9,8,5.3c2.4,2.4,4.1,5,5.3,8c1.2,3,1.7,6,1.7,9.1s-0.6,6.1-1.8,9.1
				c-1.2,3-2.9,5.6-5.3,8c-2.4,2.4-5,4.1-8,5.3c-3,1.2-6,1.7-9.1,1.7c-3.1,0-6.1-0.6-9.1-1.7c-3-1.2-5.6-2.9-8-5.3
				C336.3-650.5,334.5-653.2,333.4-656.2z M360.4-676.7c-1.5-0.6-3.1-0.9-4.6-0.9c-1.6,0-3.1,0.3-4.6,0.9c-1.5,0.6-2.9,1.5-4.1,2.7
				c-1.2,1.2-2.1,2.6-2.7,4.1c-0.6,1.5-0.9,3.1-0.9,4.7c0,1.6,0.3,3.2,0.9,4.7c0.6,1.5,1.5,2.9,2.7,4.1s2.6,2.1,4.1,2.7
				c1.5,0.6,3.1,0.9,4.7,0.9c1.6,0,3.2-0.3,4.7-0.9c1.5-0.6,2.9-1.5,4.1-2.7c1.2-1.2,2.1-2.6,2.7-4.1c0.6-1.5,0.9-3.1,0.9-4.7
				c0-1.6-0.3-3.1-0.9-4.7c-0.6-1.5-1.5-2.9-2.7-4.1C363.2-675.2,361.9-676.1,360.4-676.7z" />
					<path class="st3" d="M232-40.5c-1.2-3-1.7-6-1.7-9.1c0-3.1,0.6-6.1,1.7-9.1c1.2-3,2.9-5.6,5.3-8c2.3-2.3,5-4.1,8-5.3
				c3-1.2,6-1.8,9.1-1.8c3.1,0,6.1,0.6,9.1,1.7c3,1.2,5.6,2.9,8,5.3c2.4,2.4,4.1,5,5.3,8c1.2,3,1.7,6,1.7,9.1s-0.6,6.1-1.8,9.1
				c-1.2,3-2.9,5.6-5.3,8c-2.4,2.4-5,4.1-8,5.3c-3,1.2-6,1.7-9.1,1.7c-3.1,0-6.1-0.6-9.1-1.7c-3-1.2-5.6-2.9-8-5.3
				C234.9-34.9,233.1-37.6,232-40.5z M259-61.1c-1.5-0.6-3.1-0.9-4.7-0.9c-1.6,0-3.1,0.3-4.6,0.9c-1.5,0.6-2.9,1.5-4.1,2.7
				c-1.2,1.2-2.1,2.6-2.7,4.1c-0.6,1.5-0.9,3.1-0.9,4.7c0,1.6,0.3,3.2,0.9,4.7c0.6,1.5,1.5,2.9,2.7,4.1c1.2,1.2,2.6,2.1,4.1,2.7
				c1.5,0.6,3.1,0.9,4.7,0.9c1.6,0,3.2-0.3,4.7-0.9c1.5-0.6,2.9-1.5,4.1-2.7c1.2-1.2,2.1-2.6,2.7-4.1c0.6-1.5,0.9-3.1,0.9-4.7
				c0-1.6-0.3-3.1-0.9-4.7c-0.6-1.5-1.5-2.9-2.7-4.1C261.8-59.6,260.5-60.5,259-61.1z" />
					<path class="st3" d="M578.9-374.3 M583.6-347.5c-1.3,2.9-3,5.4-5.2,7.6c-2.2,2.2-4.7,3.9-7.6,5.2c-2.9,1.3-6,1.9-9.4,1.9
				c-3.3,0-6.5-0.6-9.4-1.9c-2.9-1.3-5.4-3-7.6-5.2c-2.2-2.2-3.9-4.7-5.2-7.6c-1.3-2.9-1.9-6-1.9-9.4c0-3.2,0.6-6.2,1.7-9.1
				c1.2-2.9,2.9-5.4,5.2-7.7l8.2,8.2c-2.3,2.4-3.4,5.3-3.4,8.6c0,1.7,0.3,3.3,1,4.8c0.7,1.5,1.5,2.8,2.7,3.9c1.1,1.1,2.4,2,3.9,2.7
				c1.5,0.7,3.1,1,4.8,1c1.7,0,3.3-0.3,4.8-1c1.5-0.7,2.8-1.5,3.9-2.7c1.1-1.1,2-2.4,2.7-3.9c0.7-1.5,1-3.1,1-4.8
				c0-3.3-1.1-6.1-3.4-8.6l8.2-8.2c2.2,2.3,3.9,4.8,5.1,7.7c1.2,2.9,1.8,5.9,1.8,9.1C585.5-353.5,584.9-350.4,583.6-347.5z" />
					<path class="st3" d="M471.5-353.8v0.2c0,2.5-0.5,4.8-1.4,7c-1,2.2-2.2,4.1-3.9,5.7c-1.6,1.6-3.5,2.9-5.7,3.8
				c-2.2,0.9-4.5,1.4-7,1.4c-2.5,0-4.8-0.5-7-1.4c-2.2-0.9-4.1-2.2-5.7-3.8c-1.6-1.6-2.9-3.5-3.9-5.7c-1-2.2-1.4-4.5-1.4-7v-0.2
				l0-8.1h11.7v8.2c0,1.8,0.6,3.3,1.8,4.5c1.2,1.2,2.7,1.8,4.5,1.8c1.8,0,3.3-0.6,4.5-1.8c1.2-1.2,1.9-2.7,1.9-4.5v-30h11.6V-353.8z
				" />
					<path class="st3" d="M271.8-546.9 M244.9-542.2c-2.9-1.3-5.4-3-7.6-5.2c-2.2-2.2-3.9-4.7-5.2-7.6c-1.3-2.9-1.9-6-1.9-9.4
				s0.6-6.5,1.9-9.4c1.3-2.9,3-5.4,5.2-7.6c2.2-2.2,4.7-3.9,7.6-5.2c2.9-1.3,6-1.9,9.4-1.9c3.2,0,6.2,0.6,9.1,1.7
				c2.9,1.2,5.4,2.9,7.7,5.2l-8.2,8.2c-2.4-2.3-5.3-3.4-8.6-3.4c-1.7,0-3.3,0.3-4.8,1c-1.5,0.7-2.8,1.5-3.9,2.7
				c-1.1,1.1-2,2.4-2.7,3.9c-0.7,1.5-1,3.1-1,4.8s0.3,3.3,1,4.8c0.7,1.5,1.5,2.8,2.7,3.9c1.1,1.1,2.4,2,3.9,2.7c1.5,0.7,3.1,1,4.8,1
				c3.3,0,6.1-1.1,8.6-3.4l8.2,8.2c-2.3,2.2-4.8,3.9-7.7,5.1c-2.9,1.2-5.9,1.8-9.1,1.8C250.9-540.3,247.8-540.9,244.9-542.2z" />
					<path class="st3" d="M362.9-574.1h0.2c2.5,0,4.8,0.5,7,1.4c2.2,1,4.1,2.2,5.7,3.9c1.6,1.6,2.9,3.5,3.8,5.7c0.9,2.2,1.4,4.5,1.4,7
				c0,2.5-0.5,4.8-1.4,7c-0.9,2.2-2.2,4.1-3.8,5.7c-1.6,1.6-3.5,2.9-5.7,3.9c-2.2,1-4.5,1.4-7,1.4H363h-8.1v-11.7h8.2
				c1.8,0,3.3-0.6,4.5-1.8c1.2-1.2,1.8-2.7,1.8-4.5c0-1.8-0.6-3.3-1.8-4.5c-1.2-1.2-2.7-1.9-4.5-1.9h-30v-11.6H362.9z" />
					<path class="st3" d="M555.2-547.7h-0.2c-2.5,0-4.8-0.5-7-1.4c-2.2-1-4.1-2.2-5.7-3.9c-1.6-1.6-2.9-3.5-3.8-5.7
				c-0.9-2.2-1.4-4.5-1.4-7c0-2.5,0.5-4.8,1.4-7c0.9-2.2,2.2-4.1,3.8-5.7c1.6-1.6,3.5-2.9,5.7-3.9c2.2-1,4.5-1.4,7-1.4h0.2h8.1v11.7
				H555c-1.8,0-3.3,0.6-4.5,1.8s-1.8,2.7-1.8,4.5c0,1.8,0.6,3.3,1.8,4.5c1.2,1.2,2.7,1.9,4.5,1.9h30v11.6L555.2-547.7z" />
					<path class="st3" d="M440.9-579.9 M467.8-584.6c2.9,1.3,5.4,3,7.6,5.2c2.2,2.2,3.9,4.7,5.2,7.6c1.3,2.9,1.9,6,1.9,9.4
				c0,3.3-0.6,6.5-1.9,9.4c-1.3,2.9-3,5.4-5.2,7.6c-2.2,2.2-4.7,3.9-7.6,5.2c-2.9,1.3-6,1.9-9.4,1.9c-3.2,0-6.2-0.6-9.1-1.7
				c-2.9-1.2-5.4-2.9-7.7-5.2l8.2-8.2c2.4,2.3,5.3,3.4,8.6,3.4c1.7,0,3.3-0.3,4.8-1c1.5-0.7,2.8-1.5,3.9-2.7c1.1-1.1,2-2.4,2.7-3.9
				c0.7-1.5,1-3.1,1-4.8c0-1.7-0.3-3.3-1-4.8c-0.7-1.5-1.5-2.8-2.7-3.9c-1.1-1.1-2.4-2-3.9-2.7c-1.5-0.7-3.1-1-4.8-1
				c-3.3,0-6.1,1.1-8.6,3.4l-8.2-8.2c2.3-2.2,4.8-3.9,7.7-5.1c2.9-1.2,5.9-1.8,9.1-1.8C461.8-586.5,464.9-585.9,467.8-584.6z" />
					<path class="st3" d="M541.9-748.2 M538.7-775.3c1.4-2.8,3.3-5.3,5.6-7.3c2.3-2,4.9-3.6,7.9-4.7c3-1.1,6.1-1.6,9.5-1.4
				c3.3,0.2,6.4,1,9.2,2.4c2.8,1.4,5.3,3.3,7.3,5.6c2,2.3,3.6,4.9,4.7,7.9c1.1,3,1.6,6.1,1.4,9.5c-0.2,3.2-0.9,6.2-2.2,8.9
				c-1.3,2.8-3.2,5.2-5.6,7.4l-7.7-8.6c2.4-2.3,3.7-5.1,3.9-8.4c0.1-1.7-0.1-3.3-0.7-4.9c-0.6-1.5-1.4-2.9-2.4-4
				c-1-1.2-2.3-2.1-3.7-2.9c-1.5-0.7-3-1.2-4.7-1.3c-1.7-0.1-3.3,0.1-4.9,0.7c-1.5,0.6-2.9,1.4-4,2.4c-1.2,1-2.1,2.3-2.9,3.7
				c-0.7,1.5-1.2,3-1.3,4.7c-0.2,3.3,0.8,6.2,2.9,8.7l-8.6,7.7c-2.1-2.4-3.7-5.1-4.7-8c-1-2.9-1.4-6-1.3-9.1
				C536.5-769.4,537.3-772.5,538.7-775.3z" />
					<path class="st3" d="M445.9-773.6v-0.2c0-2.5,0.5-4.8,1.4-7c1-2.2,2.2-4.1,3.9-5.7c1.6-1.6,3.5-2.9,5.7-3.8
				c2.2-0.9,4.5-1.4,7-1.4c2.5,0,4.8,0.5,7,1.4c2.2,0.9,4.1,2.2,5.7,3.8c1.6,1.6,2.9,3.5,3.9,5.7c1,2.2,1.4,4.5,1.4,7v0.2v8.1h-11.7
				v-8.2c0-1.8-0.6-3.3-1.8-4.5c-1.2-1.2-2.7-1.8-4.5-1.8c-1.8,0-3.3,0.6-4.5,1.8c-1.2,1.2-1.9,2.7-1.9,4.5v30h-11.6L445.9-773.6z" />
					<path class="st3" d="M374.2-781.3 M378.9-754.4c-1.3,2.9-3,5.4-5.2,7.6c-2.2,2.2-4.7,3.9-7.6,5.2c-2.9,1.3-6,1.9-9.4,1.9
				s-6.5-0.6-9.4-1.9c-2.9-1.3-5.4-3-7.6-5.2c-2.2-2.2-3.9-4.7-5.2-7.6c-1.3-2.9-1.9-6-1.9-9.4c0-3.2,0.6-6.2,1.7-9.1
				c1.2-2.9,2.9-5.4,5.2-7.7l8.2,8.2c-2.3,2.4-3.4,5.3-3.4,8.6c0,1.7,0.3,3.3,1,4.8c0.7,1.5,1.5,2.8,2.7,3.9c1.1,1.1,2.4,2,3.9,2.7
				c1.5,0.7,3.1,1,4.8,1s3.3-0.3,4.8-1c1.5-0.7,2.8-1.5,3.9-2.7c1.1-1.1,2-2.4,2.7-3.9c0.7-1.5,1-3.1,1-4.8c0-3.3-1.1-6.1-3.4-8.6
				l8.2-8.2c2.2,2.3,3.9,4.8,5.1,7.7c1.2,2.9,1.8,5.9,1.8,9.1C380.8-760.4,380.2-757.3,378.9-754.4z" />
					<path class="st3" d="M266.4-761.2v0.2c0,2.5-0.5,4.8-1.4,7c-1,2.2-2.2,4.1-3.9,5.7c-1.6,1.6-3.5,2.9-5.7,3.8
				c-2.2,0.9-4.5,1.4-7,1.4c-2.5,0-4.8-0.5-7-1.4c-2.2-0.9-4.1-2.2-5.7-3.8c-1.6-1.6-2.9-3.5-3.9-5.7s-1.4-4.5-1.4-7v-0.2v-8.1h11.7
				v8.2c0,1.8,0.6,3.3,1.8,4.5c1.2,1.2,2.7,1.8,4.5,1.8c1.8,0,3.3-0.6,4.5-1.8c1.2-1.2,1.9-2.7,1.9-4.5l0-30h11.6L266.4-761.2z" />
				</g>
				<g>
					<path class="st3" d="M29.8-247.8c-1.2-3-1.7-6-1.7-9.1c0-3.1,0.6-6.1,1.7-9.1c1.2-3,2.9-5.6,5.3-8c2.3-2.3,5-4.1,8-5.3
				c3-1.2,6-1.8,9.1-1.8c3.1,0,6.1,0.6,9.1,1.7c3,1.2,5.6,2.9,8,5.3c2.4,2.4,4.1,5,5.3,8c1.2,3,1.7,6,1.7,9.1c0,3.1-0.6,6.1-1.8,9.1
				c-1.2,3-2.9,5.6-5.3,8c-2.4,2.4-5,4.1-8,5.3c-3,1.2-6,1.7-9.1,1.7c-3.1,0-6.1-0.6-9.1-1.7c-3-1.2-5.6-2.9-8-5.3
				C32.8-242.2,31-244.9,29.8-247.8z M56.8-268.4c-1.5-0.6-3.1-0.9-4.7-0.9c-1.6,0-3.1,0.3-4.6,0.9c-1.5,0.6-2.9,1.5-4.1,2.7
				c-1.2,1.2-2.1,2.6-2.7,4.1c-0.6,1.5-0.9,3.1-0.9,4.7c0,1.6,0.3,3.2,0.9,4.7c0.6,1.5,1.5,2.9,2.7,4.1c1.2,1.2,2.6,2.1,4.1,2.7
				c1.5,0.6,3.1,0.9,4.7,0.9c1.6,0,3.2-0.3,4.7-0.9c1.5-0.6,2.9-1.5,4.1-2.7c1.2-1.2,2.1-2.6,2.7-4.1c0.6-1.5,0.9-3.1,0.9-4.7
				c0-1.6-0.3-3.1-0.9-4.6c-0.6-1.5-1.5-2.9-2.7-4.1C59.7-266.9,58.4-267.8,56.8-268.4z" />
					<path class="st3" d="M69.2-137.2 M42.4-132.5c-2.9-1.3-5.4-3-7.6-5.2c-2.2-2.2-3.9-4.7-5.2-7.6c-1.3-2.9-1.9-6-1.9-9.4
				c0-3.3,0.6-6.5,1.9-9.4c1.3-2.9,3-5.4,5.2-7.6c2.2-2.2,4.7-3.9,7.6-5.2c2.9-1.3,6-1.9,9.4-1.9c3.2,0,6.2,0.6,9.1,1.7
				c2.9,1.2,5.4,2.9,7.7,5.2l-8.2,8.2c-2.4-2.3-5.3-3.4-8.6-3.4c-1.7,0-3.3,0.3-4.8,1c-1.5,0.7-2.8,1.5-3.9,2.7
				c-1.1,1.1-2,2.4-2.7,3.9c-0.7,1.5-1,3.1-1,4.8c0,1.7,0.3,3.3,1,4.8c0.7,1.5,1.5,2.8,2.7,3.9c1.1,1.1,2.4,2,3.9,2.7
				c1.5,0.7,3.1,1,4.8,1c3.3,0,6.1-1.1,8.6-3.4l8.2,8.2c-2.3,2.2-4.8,3.9-7.7,5.1c-2.9,1.2-5.9,1.8-9.1,1.8
				C48.4-130.6,45.3-131.3,42.4-132.5z" />
					<path class="st3" d="M129.8-45.1c-1.2-3-1.7-6-1.7-9.1c0-3.1,0.6-6.1,1.7-9.1c1.2-3,2.9-5.6,5.3-8c2.3-2.3,5-4.1,8-5.3
				c3-1.2,6-1.8,9.1-1.8c3.1,0,6.1,0.6,9.1,1.7c3,1.2,5.6,2.9,8,5.3c2.4,2.4,4.1,5,5.3,8c1.2,3,1.7,6,1.7,9.1s-0.6,6.1-1.8,9.1
				c-1.2,3-2.9,5.6-5.3,8c-2.4,2.4-5,4.1-8,5.3c-3,1.2-6,1.7-9.1,1.7c-3.1,0-6.1-0.6-9.1-1.7c-3-1.2-5.6-2.9-8-5.3
				C132.8-39.5,131-42.2,129.8-45.1z M156.8-65.7c-1.5-0.6-3.1-0.9-4.7-0.9c-1.6,0-3.1,0.3-4.6,0.9c-1.5,0.6-2.9,1.5-4.1,2.7
				c-1.2,1.2-2.1,2.6-2.7,4.1c-0.6,1.5-0.9,3.1-0.9,4.7c0,1.6,0.3,3.2,0.9,4.7c0.6,1.5,1.5,2.9,2.7,4.1c1.2,1.2,2.6,2.1,4.1,2.7
				c1.5,0.6,3.1,0.9,4.7,0.9c1.6,0,3.2-0.3,4.7-0.9c1.5-0.6,2.9-1.5,4.1-2.7c1.2-1.2,2.1-2.6,2.7-4.1c0.6-1.5,0.9-3.1,0.9-4.7
				c0-1.6-0.3-3.1-0.9-4.7c-0.6-1.5-1.5-2.9-2.7-4.1C159.7-64.2,158.3-65.1,156.8-65.7z" />
					<path class="st3" d="M161.1-166.1h0.2c2.5,0,4.8,0.5,7,1.4s4.1,2.2,5.7,3.9c1.6,1.6,2.9,3.5,3.8,5.7c0.9,2.2,1.4,4.5,1.4,7
				c0,2.5-0.5,4.8-1.4,7c-0.9,2.2-2.2,4.1-3.8,5.7c-1.6,1.6-3.5,2.9-5.7,3.9s-4.5,1.4-7,1.4h-0.2h-8.1v-11.7h8.2
				c1.8,0,3.3-0.6,4.5-1.8s1.8-2.7,1.8-4.5c0-1.8-0.6-3.3-1.8-4.5c-1.2-1.2-2.7-1.9-4.5-1.9h-30v-11.6H161.1z" />
					<path class="st3" d="M30.6-42.1c-1.2-3-1.7-6-1.7-9.1c0-3.1,0.6-6.1,1.7-9.1c1.2-3,2.9-5.6,5.3-8c2.3-2.3,5-4.1,8-5.3
				c3-1.2,6-1.8,9.1-1.8c3.1,0,6.1,0.6,9.1,1.7c3,1.2,5.6,2.9,8,5.3c2.4,2.4,4.1,5,5.3,8c1.2,3,1.7,6,1.7,9.1s-0.6,6.1-1.8,9.1
				c-1.2,3-2.9,5.6-5.3,8c-2.4,2.4-5,4.1-8,5.3c-3,1.2-6,1.7-9.1,1.7c-3.1,0-6.1-0.6-9.1-1.7c-3-1.2-5.6-2.9-8-5.3
				C33.5-36.5,31.8-39.1,30.6-42.1z M57.6-62.6c-1.5-0.6-3.1-0.9-4.7-0.9c-1.6,0-3.1,0.3-4.6,0.9c-1.5,0.6-2.9,1.5-4.1,2.7
				c-1.2,1.2-2.1,2.6-2.7,4.1c-0.6,1.5-0.9,3.1-0.9,4.7c0,1.6,0.3,3.2,0.9,4.7c0.6,1.5,1.5,2.9,2.7,4.1s2.6,2.1,4.1,2.7
				c1.5,0.6,3.1,0.9,4.7,0.9c1.6,0,3.2-0.3,4.7-0.9c1.5-0.6,2.9-1.5,4.1-2.7c1.2-1.2,2.1-2.6,2.7-4.1c0.6-1.5,0.9-3.1,0.9-4.7
				c0-1.6-0.3-3.1-0.9-4.7c-0.6-1.5-1.5-2.9-2.7-4.1C60.5-61.1,59.1-62,57.6-62.6z" />
					<path class="st3" d="M131-246.7c-1.2-3-1.7-6-1.7-9.1c0-3.1,0.6-6.1,1.7-9.1c1.2-3,2.9-5.6,5.3-8c2.3-2.3,5-4.1,8-5.3
				c3-1.2,6-1.8,9.1-1.8c3.1,0,6.1,0.6,9.1,1.7c3,1.2,5.6,2.9,8,5.3c2.4,2.4,4.1,5,5.3,8c1.2,3,1.7,6,1.7,9.1s-0.6,6.1-1.8,9.1
				c-1.2,3-2.9,5.6-5.3,8c-2.4,2.4-5,4.1-8,5.3c-3,1.2-6,1.7-9.1,1.7c-3.1,0-6.1-0.6-9.1-1.7c-3-1.2-5.6-2.9-8-5.3
				C133.9-241.1,132.2-243.7,131-246.7z M158-267.2c-1.5-0.6-3.1-0.9-4.6-0.9c-1.6,0-3.1,0.3-4.6,0.9c-1.5,0.6-2.9,1.5-4.1,2.7
				c-1.2,1.2-2.1,2.6-2.7,4.1c-0.6,1.5-0.9,3.1-0.9,4.7c0,1.6,0.3,3.2,0.9,4.7c0.6,1.5,1.5,2.9,2.7,4.1c1.2,1.2,2.6,2.1,4.1,2.7
				c1.5,0.6,3.1,0.9,4.7,0.9c1.6,0,3.2-0.3,4.7-0.9c1.5-0.6,2.9-1.5,4.1-2.7c1.2-1.2,2.1-2.6,2.7-4.1c0.6-1.5,0.9-3.1,0.9-4.6
				c0-1.6-0.3-3.1-0.9-4.7c-0.6-1.5-1.5-2.9-2.7-4.1C160.9-265.7,159.5-266.6,158-267.2z" />
					<path class="st3" d="M28-450c-1.2-3-1.7-6-1.7-9.1c0-3.1,0.6-6.1,1.7-9.1c1.2-3,2.9-5.6,5.3-8c2.3-2.3,5-4.1,8-5.3
				c3-1.2,6-1.8,9.1-1.8c3.1,0,6.1,0.6,9.1,1.7c3,1.2,5.6,2.9,8,5.3c2.4,2.4,4.1,5,5.3,8c1.2,3,1.7,6,1.7,9.1s-0.6,6.1-1.8,9.1
				c-1.2,3-2.9,5.6-5.3,8c-2.4,2.4-5,4.1-8,5.3c-3,1.2-6,1.7-9.1,1.7c-3.1,0-6.1-0.6-9.1-1.7c-3-1.2-5.6-2.9-8-5.3
				C30.9-444.4,29.1-447,28-450z M55-470.5c-1.5-0.6-3.1-0.9-4.7-0.9c-1.6,0-3.1,0.3-4.6,0.9c-1.5,0.6-2.9,1.5-4.1,2.7
				c-1.2,1.2-2.1,2.6-2.7,4.1c-0.6,1.5-0.9,3.1-0.9,4.7c0,1.6,0.3,3.2,0.9,4.7c0.6,1.5,1.5,2.9,2.7,4.1c1.2,1.2,2.6,2.1,4.1,2.7
				c1.5,0.6,3.1,0.9,4.7,0.9c1.6,0,3.2-0.3,4.7-0.9c1.5-0.6,2.9-1.5,4.1-2.7c1.2-1.2,2.1-2.6,2.7-4.1c0.6-1.5,0.9-3.1,0.9-4.6
				c0-1.6-0.3-3.1-0.9-4.6c-0.6-1.5-1.5-2.9-2.7-4.1C57.8-469,56.5-469.9,55-470.5z" />
					<path class="st3" d="M128.5-451.6c-1.2-3-1.7-6-1.7-9.1c0-3.1,0.6-6.1,1.7-9.1c1.2-3,2.9-5.6,5.3-8c2.3-2.3,5-4.1,8-5.3
				c3-1.2,6-1.8,9.1-1.8c3.1,0,6.1,0.6,9.1,1.7c3,1.2,5.6,2.9,8,5.3c2.4,2.4,4.1,5,5.3,8c1.2,3,1.7,6,1.7,9.1c0,3.1-0.6,6.1-1.8,9.1
				c-1.2,3-2.9,5.6-5.3,8c-2.4,2.4-5,4.1-8,5.3c-3,1.2-6,1.7-9.1,1.7c-3.1,0-6.1-0.6-9.1-1.7c-3-1.2-5.6-2.9-8-5.3
				C131.4-446,129.6-448.7,128.5-451.6z M155.4-472.2c-1.5-0.6-3.1-0.9-4.6-0.9c-1.6,0-3.1,0.3-4.6,0.9c-1.5,0.6-2.9,1.5-4.1,2.7
				c-1.2,1.2-2.1,2.6-2.7,4.1c-0.6,1.5-0.9,3.1-0.9,4.7c0,1.6,0.3,3.2,0.9,4.7c0.6,1.5,1.5,2.9,2.7,4.1s2.6,2.1,4.1,2.7
				c1.5,0.6,3.1,0.9,4.7,0.9c1.6,0,3.2-0.3,4.7-0.9c1.5-0.6,2.9-1.5,4.1-2.7c1.2-1.2,2.1-2.6,2.7-4.1c0.6-1.5,0.9-3.1,0.9-4.6
				c0-1.6-0.3-3.1-0.9-4.7c-0.6-1.5-1.5-2.9-2.7-4.1C158.3-470.7,157-471.6,155.4-472.2z" />
					<path class="st3" d="M129.1-656.4c-1.2-3-1.7-6-1.7-9.1c0-3.1,0.6-6.1,1.7-9.1c1.2-3,2.9-5.6,5.3-8c2.3-2.3,5-4.1,8-5.3
				c3-1.2,6-1.8,9.1-1.8c3.1,0,6.1,0.6,9.1,1.7c3,1.2,5.6,2.9,8,5.3c2.4,2.4,4.1,5,5.3,8c1.2,3,1.7,6,1.7,9.1s-0.6,6.1-1.8,9.1
				c-1.2,3-2.9,5.6-5.3,8c-2.4,2.4-5,4.1-8,5.3c-3,1.2-6,1.7-9.1,1.7c-3.1,0-6.1-0.6-9.1-1.7c-3-1.2-5.6-2.9-8-5.3
				C132.1-650.8,130.3-653.4,129.1-656.4z M156.1-676.9c-1.5-0.6-3.1-0.9-4.7-0.9c-1.6,0-3.1,0.3-4.6,0.9c-1.5,0.6-2.9,1.5-4.1,2.7
				c-1.2,1.2-2.1,2.6-2.7,4.1c-0.6,1.5-0.9,3.1-0.9,4.7c0,1.6,0.3,3.2,0.9,4.7c0.6,1.5,1.5,2.9,2.7,4.1c1.2,1.2,2.6,2.1,4.1,2.7
				c1.5,0.6,3.1,0.9,4.7,0.9c1.6,0,3.2-0.3,4.7-0.9c1.5-0.6,2.9-1.5,4.1-2.7c1.2-1.2,2.1-2.6,2.7-4.1c0.6-1.5,0.9-3.1,0.9-4.7
				c0-1.6-0.3-3.1-0.9-4.7c-0.6-1.5-1.5-2.9-2.7-4.1C159-675.4,157.6-676.3,156.1-676.9z" />
					<path class="st3" d="M26.5-653.7c-1.2-3-1.7-6-1.7-9.1c0-3.1,0.6-6.1,1.7-9.1c1.2-3,2.9-5.6,5.3-8c2.3-2.3,5-4.1,8-5.3
				c3-1.2,6-1.8,9.1-1.8c3.1,0,6.1,0.6,9.1,1.7c3,1.2,5.6,2.9,8,5.3c2.4,2.4,4.1,5,5.3,8c1.2,3,1.7,6,1.7,9.1c0,3.1-0.6,6.1-1.8,9.1
				c-1.2,3-2.9,5.6-5.3,8c-2.4,2.4-5,4.1-8,5.3c-3,1.2-6,1.7-9.1,1.7c-3.1,0-6.1-0.6-9.1-1.7c-3-1.2-5.6-2.9-8-5.3
				C29.4-648,27.7-650.7,26.5-653.7z M53.5-674.2c-1.5-0.6-3.1-0.9-4.7-0.9c-1.6,0-3.1,0.3-4.6,0.9c-1.5,0.6-2.9,1.5-4.1,2.7
				c-1.2,1.2-2.1,2.6-2.7,4.1c-0.6,1.5-0.9,3.1-0.9,4.7c0,1.6,0.3,3.2,0.9,4.7c0.6,1.5,1.5,2.9,2.7,4.1c1.2,1.2,2.6,2.1,4.1,2.7
				c1.5,0.6,3.1,0.9,4.7,0.9c1.6,0,3.2-0.3,4.7-0.9c1.5-0.6,2.9-1.5,4.1-2.7c1.2-1.2,2.1-2.6,2.7-4.1c0.6-1.5,0.9-3.1,0.9-4.6
				c0-1.6-0.3-3.1-0.9-4.7c-0.6-1.5-1.5-2.9-2.7-4.1C56.4-672.7,55-673.6,53.5-674.2z" />
					<path class="st3" d="M169.5-374.3 M174.2-347.5c-1.3,2.9-3,5.4-5.2,7.6c-2.2,2.2-4.7,3.9-7.6,5.2c-2.9,1.3-6,1.9-9.4,1.9
				c-3.3,0-6.5-0.6-9.4-1.9c-2.9-1.3-5.4-3-7.6-5.2c-2.2-2.2-3.9-4.7-5.2-7.6c-1.3-2.9-1.9-6-1.9-9.4c0-3.2,0.6-6.2,1.7-9.1
				c1.2-2.9,2.9-5.4,5.2-7.7l8.2,8.2c-2.3,2.4-3.4,5.3-3.4,8.6c0,1.7,0.3,3.3,1,4.8c0.7,1.5,1.5,2.8,2.7,3.9c1.1,1.1,2.4,2,3.9,2.7
				c1.5,0.7,3.1,1,4.8,1c1.7,0,3.3-0.3,4.8-1c1.5-0.7,2.8-1.5,3.9-2.7c1.1-1.1,2-2.4,2.7-3.9c0.7-1.5,1-3.1,1-4.8
				c0-3.3-1.1-6.1-3.4-8.6l8.2-8.2c2.2,2.3,3.9,4.8,5.1,7.7c1.2,2.9,1.8,5.9,1.8,9.1C176.1-353.5,175.4-350.4,174.2-347.5z" />
					<path class="st3" d="M62.1-353.8v0.2c0,2.5-0.5,4.8-1.4,7c-1,2.2-2.2,4.1-3.9,5.7c-1.6,1.6-3.5,2.9-5.7,3.8
				c-2.2,0.9-4.5,1.4-7,1.4c-2.5,0-4.8-0.5-7-1.4c-2.2-0.9-4.1-2.2-5.7-3.8c-1.6-1.6-2.9-3.5-3.9-5.7c-1-2.2-1.4-4.5-1.4-7v-0.2
				l0-8.1h11.7l0,8.2c0,1.8,0.6,3.3,1.8,4.5c1.2,1.2,2.7,1.8,4.5,1.8c1.8,0,3.3-0.6,4.5-1.8c1.2-1.2,1.9-2.7,1.9-4.5l0-30h11.6
				L62.1-353.8z" />
					<path class="st3" d="M145.7-547.7h-0.2c-2.5,0-4.8-0.5-7-1.4c-2.2-1-4.1-2.2-5.7-3.9c-1.6-1.6-2.9-3.5-3.8-5.7
				c-0.9-2.2-1.4-4.5-1.4-7c0-2.5,0.5-4.8,1.4-7c0.9-2.2,2.2-4.1,3.8-5.7c1.6-1.6,3.5-2.9,5.7-3.9c2.2-1,4.5-1.4,7-1.4h0.2h8.1v11.7
				h-8.2c-1.8,0-3.3,0.6-4.5,1.8s-1.8,2.7-1.8,4.5c0,1.8,0.6,3.3,1.8,4.5c1.2,1.2,2.7,1.9,4.5,1.9h30v11.6L145.7-547.7z" />
					<path class="st3" d="M31.5-579.9 M58.3-584.6c2.9,1.3,5.4,3,7.6,5.2c2.2,2.2,3.9,4.7,5.2,7.6c1.3,2.9,1.9,6,1.9,9.4
				c0,3.3-0.6,6.5-1.9,9.4c-1.3,2.9-3,5.4-5.2,7.6c-2.2,2.2-4.7,3.9-7.6,5.2c-2.9,1.3-6,1.9-9.4,1.9c-3.2,0-6.2-0.6-9.1-1.7
				c-2.9-1.2-5.4-2.9-7.7-5.2l8.2-8.2c2.4,2.3,5.3,3.4,8.6,3.4c1.7,0,3.3-0.3,4.8-1c1.5-0.7,2.8-1.5,3.9-2.7c1.1-1.1,2-2.4,2.7-3.9
				c0.7-1.5,1-3.1,1-4.8c0-1.7-0.3-3.3-1-4.8c-0.7-1.5-1.5-2.8-2.7-3.9c-1.1-1.1-2.4-2-3.9-2.7c-1.5-0.7-3.1-1-4.8-1
				c-3.3,0-6.1,1.1-8.6,3.4l-8.2-8.2c2.3-2.2,4.8-3.9,7.7-5.1c2.9-1.2,5.9-1.8,9.1-1.8C52.3-586.5,55.4-585.9,58.3-584.6z" />
					<path class="st3" d="M132.4-748.2 M129.3-775.3c1.4-2.8,3.3-5.3,5.6-7.3c2.3-2,4.9-3.6,7.9-4.7c3-1.1,6.1-1.6,9.5-1.4
				c3.3,0.2,6.4,1,9.2,2.4c2.8,1.4,5.3,3.3,7.3,5.6c2,2.3,3.6,4.9,4.7,7.9c1.1,3,1.6,6.1,1.4,9.5c-0.2,3.2-0.9,6.2-2.2,8.9
				c-1.3,2.8-3.2,5.2-5.6,7.4l-7.7-8.6c2.4-2.3,3.7-5.1,3.9-8.4c0.1-1.7-0.1-3.3-0.7-4.9c-0.6-1.5-1.4-2.9-2.4-4
				c-1-1.2-2.3-2.1-3.7-2.9c-1.5-0.7-3-1.2-4.7-1.3c-1.7-0.1-3.3,0.1-4.9,0.7c-1.5,0.6-2.9,1.4-4,2.4c-1.2,1-2.1,2.3-2.9,3.7
				c-0.7,1.5-1.2,3-1.3,4.7c-0.2,3.3,0.8,6.2,2.9,8.7l-8.6,7.7c-2.1-2.4-3.7-5.1-4.7-8c-1-2.9-1.4-6-1.3-9.1
				C127-769.4,127.8-772.5,129.3-775.3z" />
					<path class="st3" d="M36.5-773.6v-0.2c0-2.5,0.5-4.8,1.4-7c1-2.2,2.2-4.1,3.9-5.7c1.6-1.6,3.5-2.9,5.7-3.8c2.2-0.9,4.5-1.4,7-1.4
				c2.5,0,4.8,0.5,7,1.4c2.2,0.9,4.1,2.2,5.7,3.8c1.6,1.6,2.9,3.5,3.9,5.7c1,2.2,1.4,4.5,1.4,7v0.2v8.1H60.7l0-8.2
				c0-1.8-0.6-3.3-1.8-4.5s-2.7-1.8-4.5-1.8c-1.8,0-3.3,0.6-4.5,1.8c-1.2,1.2-1.9,2.7-1.9,4.5l0,30H36.5L36.5-773.6z" />
				</g>
			</g>
		</pattern>
		<rect x="-18" y="-2" class="st4" width="1280" height="1024" />
		<rect x="-1422" y="-2" class="st5" width="1280" height="1024" />
		<pattern id="SVGID_1_" xlink:href="#New_Pattern" patternTransform="matrix(0.7055 -0.7064 0.7055 0.7064 2782.4619 -6054.9922)">
		</pattern>
		<pattern id="SVGID_2_" xlink:href="#New_Pattern" patternTransform="matrix(0.9977 0 0 0.999 4.8253 1.4206)">
		</pattern>
		<rect x="-1421.5" y="-1.5" class="st6" width="1279" height="1023" />
		<path class="st7" d="M-2130.5-530.3h-29.8v77.3c0,4.5-1.6,8.4-4.8,11.5c-3.2,3.1-7,4.7-11.6,4.7c-4.5,0-8.4-1.6-11.5-4.7
	s-4.7-6.9-4.7-11.5v-21h-30v20.8v0.4c0,6.4,1.2,12.3,3.7,17.9c2.5,5.6,5.8,10.4,9.9,14.6c4.2,4.2,9,7.4,14.6,9.8
	c5.6,2.4,11.5,3.6,17.9,3.6c6.4,0,12.3-1.2,17.9-3.6c5.6-2.4,10.4-5.7,14.6-9.8c4.1-4.1,7.5-9,9.9-14.6c2.5-5.6,3.7-11.5,3.7-17.9
	v-0.6V-530.3z" />
		<path class="st7" d="M-1634.8-407c8.6,0,16.7-1.6,24.1-4.9c7.5-3.3,14.1-7.7,19.7-13.3c5.6-5.6,10-12.2,13.3-19.7
	c3.3-7.5,4.9-15.5,4.9-24.1c0-8.5-1.6-16.5-4.9-24.1c-3.3-7.6-7.7-14.1-13.3-19.7s-12.2-10-19.7-13.3c-7.5-3.3-15.5-4.9-24.1-4.9
	c-8.6,0-16.7,1.6-24.1,4.9c-7.5,3.3-14,7.7-19.7,13.3c-5.6,5.6-10,12.2-13.3,19.7c-3.3,7.6-4.9,15.6-4.9,24.1
	c0,8.6,1.6,16.7,4.9,24.1c3.3,7.5,7.7,14,13.3,19.7c5.6,5.6,12.2,10,19.7,13.3C-1651.4-408.6-1643.4-407-1634.8-407z M-1634.8-500.9
	c4.4,0,8.6,0.9,12.4,2.5c3.8,1.7,7.2,4,10.1,6.8c2.9,2.9,5.1,6.2,6.8,10.1c1.7,3.8,2.5,8,2.5,12.4s-0.9,8.6-2.5,12.4
	c-1.7,3.8-4,7.2-6.8,10.2c-2.9,2.9-6.2,5.2-10.1,6.9c-3.8,1.7-8,2.5-12.4,2.5c-4.4,0-8.6-0.8-12.4-2.5c-3.8-1.7-7.2-4-10.1-6.9
	c-2.9-2.9-5.2-6.3-6.8-10.2c-1.7-3.8-2.5-8-2.5-12.4s0.8-8.6,2.5-12.4c1.7-3.8,4-7.2,6.8-10.1c2.9-2.9,6.2-5.1,10.1-6.8
	C-1643.3-500-1639.2-500.9-1634.8-500.9z" />
		<path class="st7" d="M-1989.7-407c8.6,0,16.7-1.6,24.1-4.9c7.5-3.3,14.1-7.7,19.7-13.3c5.6-5.6,10-12.2,13.3-19.7
	c3.3-7.5,4.9-15.5,4.9-24.1c0-8.5-1.6-16.5-4.9-24.1c-3.3-7.6-7.7-14.1-13.3-19.7s-12.2-10-19.7-13.3c-7.5-3.3-15.5-4.9-24.1-4.9
	c-8.6,0-16.7,1.6-24.1,4.9c-7.5,3.3-14,7.7-19.7,13.3c-5.6,5.6-10,12.2-13.3,19.7c-3.3,7.6-4.9,15.6-4.9,24.1
	c0,8.6,1.6,16.7,4.9,24.1c3.3,7.5,7.7,14,13.3,19.7c5.6,5.6,12.2,10,19.7,13.3C-2006.4-408.6-1998.3-407-1989.7-407z M-1989.7-500.9
	c4.4,0,8.6,0.9,12.4,2.5c3.8,1.7,7.2,4,10.1,6.8c2.9,2.9,5.1,6.2,6.8,10.1c1.7,3.8,2.5,8,2.5,12.4s-0.9,8.6-2.5,12.4
	c-1.7,3.8-4,7.2-6.8,10.2c-2.9,2.9-6.2,5.2-10.1,6.9c-3.8,1.7-8,2.5-12.4,2.5c-4.4,0-8.6-0.8-12.4-2.5c-3.8-1.7-7.2-4-10.1-6.9
	c-2.9-2.9-5.2-6.3-6.8-10.2c-1.7-3.8-2.5-8-2.5-12.4s0.8-8.6,2.5-12.4c1.7-3.8,4-7.2,6.8-10.1c2.9-2.9,6.2-5.1,10.1-6.8
	C-1998.3-500-1994.1-500.9-1989.7-500.9z" />
		<path class="st7" d="M-1761.3-424.2 M-1806.4-407.2c8.2,0,16-1.5,23.3-4.6c7.3-3.1,13.9-7.4,19.8-13.2l-21-21.1
	c-6.2,5.8-13.6,8.8-22,8.8c-4.4,0-8.5-0.8-12.4-2.5c-3.8-1.7-7.2-4-10-6.8c-2.9-2.9-5.1-6.2-6.8-10c-1.7-3.8-2.5-8-2.5-12.4
	c0-4.4,0.8-8.5,2.5-12.4c1.7-3.8,4-7.2,6.8-10s6.2-5.1,10-6.8c3.8-1.7,8-2.5,12.4-2.5c8.4,0,15.8,2.9,22,8.8l21-21.1
	c-5.8-5.8-12.4-10.3-19.8-13.3c-7.3-3-15.1-4.5-23.3-4.5c-8.6,0-16.6,1.6-24.1,4.9c-7.5,3.3-14,7.7-19.6,13.3
	c-5.6,5.6-10,12.1-13.3,19.6c-3.3,7.5-4.9,15.5-4.9,24.1c0,8.6,1.6,16.6,4.9,24.1c3.2,7.5,7.7,14,13.3,19.6
	c5.6,5.6,12.1,10,19.6,13.3C-1823-408.8-1814.9-407.2-1806.4-407.2z" />
		<pattern id="SVGID_3_" xlink:href="#New_Pattern_2" patternTransform="matrix(0.7071 -0.7071 0.7071 0.7071 3027.4851 -6263.8589)">
		</pattern>
		<polygon class="st8" points="-3,1158 1277,1158 1277,2182 -3,2182 " />
		<linearGradient id="SVGID_4_" gradientUnits="userSpaceOnUse" x1="141.8337" y1="1209.4459" x2="1136.2902" y2="2134.3896" gradientTransform="matrix(-1 0 0 -1 1274 3340)">
			<stop offset="3.708055e-03" style="stop-color:#00FF00" />
			<stop offset="3.121081e-02" style="stop-color:#0BFF0B" />
			<stop offset="0.1691" style="stop-color:#3FFF3F" />
			<stop offset="0.3091" style="stop-color:#6CFF6C" />
			<stop offset="0.4487" style="stop-color:#91FF91" />
			<stop offset="0.5878" style="stop-color:#AEFFAE" />
			<stop offset="0.7262" style="stop-color:#C2FFC2" />
			<stop offset="0.8639" style="stop-color:#CEFFCE" />
			<stop offset="1" style="stop-color:#D2FFD2" />
		</linearGradient>
		<polygon class="st9" points="-3,1158 1277,1158 1277,2182 -3,2182 " />
		<linearGradient id="SVGID_5_" gradientUnits="userSpaceOnUse" x1="-1258.1571" y1="1194.2411" x2="-405.6737" y2="2102.7827">
			<stop offset="0" style="stop-color:#00693A" />
			<stop offset="1" style="stop-color:#013453" />
		</linearGradient>
		<rect x="-1448" y="1162" class="st10" width="1280" height="1024" />
		<line class="st11" x1="900" y1="2365" x2="900" y2="2356" />
		<rect x="-1448" y="1162" class="st0" width="1280" height="1024" />
		<g class="st7">
			<path class="st12" d="M2162.7,245c2.4,2.4,5,4.1,8,5.3c3,1.2,6,1.7,9.1,1.7c3.1,0,6.1-0.6,9.1-1.7c3-1.2,5.6-2.9,8-5.3
		c2.3-2.3,4.1-5,5.3-8c1.2-3,1.8-6,1.8-9.1s-0.6-6.1-1.7-9.1c-1.2-3-2.9-5.6-5.3-8c-2.4-2.4-5-4.1-8-5.3c-3-1.2-6-1.7-9.1-1.7
		c-3.1,0-6.1,0.6-9.1,1.8c-3,1.2-5.6,2.9-8,5.3c-2.4,2.4-4.1,5-5.3,8c-1.2,3-1.7,6-1.7,9.1c0,3.1,0.6,6.1,1.7,9.1
		C2158.6,239.9,2160.3,242.6,2162.7,245z M2188.5,219.2c1.2,1.2,2.1,2.6,2.7,4.1c0.6,1.5,0.9,3.1,0.9,4.7c0,1.6-0.3,3.1-0.9,4.7
		c-0.6,1.5-1.5,2.9-2.7,4.1s-2.6,2.1-4.1,2.7c-1.5,0.6-3.1,0.9-4.7,0.9c-1.6,0-3.2-0.3-4.7-0.9c-1.5-0.6-2.9-1.5-4.1-2.7
		c-1.2-1.2-2.1-2.6-2.7-4.1c-0.6-1.5-0.9-3.1-0.9-4.7c0-1.6,0.3-3.2,0.9-4.7c0.6-1.5,1.5-2.9,2.7-4.1s2.6-2.1,4.1-2.7
		c1.5-0.6,3.1-0.9,4.6-0.9c1.6,0,3.1,0.3,4.7,0.9C2185.9,217,2187.3,218,2188.5,219.2z" />
			<path class="st12" d="M2264.2,346.8 M2258.6,328.9c-0.2,3.2,0.2,6.2,1.3,9.1c1,2.9,2.6,5.6,4.7,8l8.6-7.7c-2.1-2.5-3.1-5.5-2.9-8.7
		c0.1-1.7,0.5-3.3,1.3-4.7c0.7-1.5,1.7-2.7,2.9-3.7c1.2-1,2.5-1.9,4-2.4c1.5-0.6,3.1-0.8,4.9-0.7c1.7,0.1,3.3,0.5,4.7,1.3
		c1.5,0.7,2.7,1.7,3.7,2.9c1,1.2,1.9,2.5,2.4,4c0.6,1.5,0.8,3.1,0.7,4.9c-0.2,3.3-1.5,6.1-3.9,8.4l7.7,8.6c2.4-2.1,4.3-4.6,5.6-7.4
		c1.3-2.8,2.1-5.8,2.2-8.9c0.2-3.3-0.3-6.5-1.4-9.5c-1.1-3-2.7-5.6-4.7-7.9c-2-2.3-4.5-4.2-7.3-5.6c-2.8-1.4-5.9-2.2-9.2-2.4
		s-6.5,0.3-9.5,1.4c-3,1.1-5.6,2.7-7.9,4.7c-2.3,2-4.1,4.5-5.6,7.3C2259.6,322.5,2258.8,325.6,2258.6,328.9z" />
			<path class="st12" d="M2367.3,449.6c2.4,2.4,5,4.1,8,5.3c3,1.2,6,1.7,9.1,1.7c3.1,0,6.1-0.6,9.1-1.7c3-1.2,5.6-2.9,8-5.3
		c2.3-2.3,4.1-5,5.3-8c1.2-3,1.8-6,1.8-9.1c0-3.1-0.6-6.1-1.7-9.1c-1.2-3-2.9-5.6-5.3-8c-2.4-2.4-5-4.1-8-5.3c-3-1.2-6-1.7-9.1-1.7
		c-3.1,0-6.1,0.6-9.1,1.8c-3,1.2-5.6,2.9-8,5.3c-2.4,2.4-4.1,5-5.3,8c-1.2,3-1.7,6-1.7,9.1c0,3.1,0.6,6.1,1.7,9.1
		C2363.1,444.5,2364.9,447.2,2367.3,449.6z M2393.1,423.8c1.2,1.2,2.1,2.6,2.7,4.1c0.6,1.5,0.9,3.1,0.9,4.7c0,1.6-0.3,3.1-0.9,4.6
		c-0.6,1.5-1.5,2.9-2.7,4.1s-2.6,2.1-4.1,2.7c-1.5,0.6-3.1,0.9-4.7,0.9c-1.6,0-3.2-0.3-4.7-0.9c-1.5-0.6-2.9-1.5-4.1-2.7
		c-1.2-1.2-2.1-2.6-2.7-4.1c-0.6-1.5-0.9-3.1-0.9-4.7c0-1.6,0.3-3.2,0.9-4.7c0.6-1.5,1.5-2.9,2.7-4.1c1.2-1.2,2.6-2.1,4.1-2.7
		c1.5-0.6,3.1-0.9,4.6-0.9c1.6,0,3.1,0.3,4.7,0.9C2390.5,421.6,2391.9,422.5,2393.1,423.8z" />
			<path class="st12" d="M2165.9,353.4h11.6v-30c0-1.8,0.6-3.3,1.9-4.5c1.2-1.2,2.7-1.8,4.5-1.8c1.8,0,3.3,0.6,4.5,1.8
		c1.2,1.2,1.8,2.7,1.8,4.5v8.2h11.7v-8.1v-0.2c0-2.5-0.5-4.8-1.4-7c-1-2.2-2.2-4.1-3.9-5.7c-1.6-1.6-3.5-2.9-5.7-3.8
		c-2.2-0.9-4.5-1.4-7-1.4c-2.5,0-4.8,0.5-7,1.4c-2.2,0.9-4.1,2.2-5.7,3.8c-1.6,1.6-2.9,3.5-3.9,5.7c-1,2.2-1.4,4.5-1.4,7v0.2V353.4z
		" />
			<path class="st12" d="M2263.3,448.3c2.4,2.4,5,4.1,8,5.3c3,1.2,6,1.7,9.1,1.7c3.1,0,6.1-0.6,9.1-1.7c3-1.2,5.6-2.9,8-5.3
		c2.3-2.3,4.1-5,5.3-8c1.2-3,1.8-6,1.8-9.1c0-3.1-0.6-6.1-1.7-9.1c-1.2-3-2.9-5.6-5.3-8c-2.4-2.4-5-4.1-8-5.3c-3-1.2-6-1.7-9.1-1.7
		c-3.1,0-6.1,0.6-9.1,1.8c-3,1.2-5.6,2.9-8,5.3c-2.4,2.4-4.1,5-5.3,8c-1.2,3-1.7,6-1.7,9.1c0,3.1,0.6,6.1,1.7,9.1
		C2259.2,443.3,2261,446,2263.3,448.3z M2289.1,422.5c1.2,1.2,2.1,2.6,2.7,4.1c0.6,1.5,0.9,3.1,0.9,4.6c0,1.6-0.3,3.1-0.9,4.7
		c-0.6,1.5-1.5,2.9-2.7,4.1s-2.6,2.1-4.1,2.7c-1.5,0.6-3.1,0.9-4.7,0.9c-1.6,0-3.2-0.3-4.7-0.9c-1.5-0.6-2.9-1.5-4.1-2.7
		s-2.1-2.6-2.7-4.1c-0.6-1.5-0.9-3.1-0.9-4.7c0-1.6,0.3-3.2,0.9-4.7c0.6-1.5,1.5-2.9,2.7-4.1s2.6-2.1,4.1-2.7
		c1.5-0.6,3.1-0.9,4.6-0.9c1.6,0,3.1,0.3,4.7,0.9C2286.5,420.4,2287.9,421.3,2289.1,422.5z" />
			<path class="st12" d="M2401.4,552.2 M2383.9,558.8c3.2,0,6.2-0.6,9.1-1.8c2.9-1.2,5.4-2.9,7.7-5.1l-8.2-8.2
		c-2.4,2.3-5.3,3.4-8.6,3.4c-1.7,0-3.3-0.3-4.8-1c-1.5-0.7-2.8-1.5-3.9-2.7c-1.1-1.1-2-2.4-2.7-3.9c-0.7-1.5-1-3.1-1-4.8
		s0.3-3.3,1-4.8c0.7-1.5,1.5-2.8,2.7-3.9c1.1-1.1,2.4-2,3.9-2.7c1.5-0.7,3.1-1,4.8-1c3.3,0,6.1,1.1,8.6,3.4l8.2-8.2
		c-2.3-2.3-4.8-4-7.7-5.2c-2.9-1.2-5.9-1.7-9.1-1.7c-3.3,0-6.5,0.6-9.4,1.9c-2.9,1.3-5.4,3-7.6,5.2c-2.2,2.2-3.9,4.7-5.2,7.6
		c-1.3,2.9-1.9,6-1.9,9.4s0.6,6.5,1.9,9.4c1.3,2.9,3,5.4,5.2,7.6c2.2,2.2,4.7,3.9,7.6,5.2C2377.4,558.2,2380.5,558.8,2383.9,558.8z" />
			<path class="st12" d="M2306,547.5v-11.6h-30c-1.8,0-3.3-0.6-4.5-1.9c-1.2-1.2-1.8-2.7-1.8-4.5c0-1.8,0.6-3.3,1.8-4.5
		c1.2-1.2,2.7-1.8,4.5-1.8h8.2v-11.7h-8.1h-0.2c-2.5,0-4.8,0.5-7,1.4c-2.2,1-4.1,2.2-5.7,3.9c-1.6,1.6-2.9,3.5-3.8,5.7
		c-0.9,2.2-1.4,4.5-1.4,7c0,2.5,0.5,4.8,1.4,7c0.9,2.2,2.2,4.1,3.8,5.7c1.6,1.6,3.5,2.9,5.7,3.9c2.2,1,4.5,1.4,7,1.4h0.2H2306z" />
			<path class="st12" d="M2162.8,450c2.4,2.4,5,4.1,8,5.3c3,1.2,6,1.7,9.1,1.7c3.1,0,6.1-0.6,9.1-1.7c3-1.2,5.6-2.9,8-5.3
		c2.3-2.3,4.1-5,5.3-8c1.2-3,1.8-6,1.8-9.1s-0.6-6.1-1.7-9.1c-1.2-3-2.9-5.6-5.3-8c-2.4-2.4-5-4.1-8-5.3c-3-1.2-6-1.7-9.1-1.7
		c-3.1,0-6.1,0.6-9.1,1.8c-3,1.2-5.6,2.9-8,5.3c-2.4,2.4-4.1,5-5.3,8c-1.2,3-1.7,6-1.7,9.1c0,3.1,0.6,6.1,1.7,9.1
		C2158.6,445,2160.4,447.7,2162.8,450z M2188.6,424.2c1.2,1.2,2.1,2.6,2.7,4.1c0.6,1.5,0.9,3.1,0.9,4.6c0,1.6-0.3,3.1-0.9,4.6
		c-0.6,1.5-1.5,2.9-2.7,4.1c-1.2,1.2-2.6,2.1-4.1,2.7c-1.5,0.6-3.1,0.9-4.7,0.9c-1.6,0-3.2-0.3-4.7-0.9c-1.5-0.6-2.9-1.5-4.1-2.7
		c-1.2-1.2-2.1-2.6-2.7-4.1c-0.6-1.5-0.9-3.1-0.9-4.7c0-1.6,0.3-3.2,0.9-4.7c0.6-1.5,1.5-2.9,2.7-4.1c1.2-1.2,2.6-2.1,4.1-2.7
		c1.5-0.6,3.1-0.9,4.6-0.9c1.6,0,3.1,0.3,4.7,0.9C2186,422.1,2187.3,423,2188.6,424.2z" />
			<path class="st12" d="M2467.3,652.3c2.4,2.4,5,4.1,8,5.3c3,1.2,6,1.7,9.1,1.7c3.1,0,6.1-0.6,9.1-1.7c3-1.2,5.6-2.9,8-5.3
		c2.3-2.3,4.1-5,5.3-8c1.2-3,1.8-6,1.8-9.1s-0.6-6.1-1.7-9.1c-1.2-3-2.9-5.6-5.3-8c-2.4-2.4-5-4.1-8-5.3c-3-1.2-6-1.7-9.1-1.7
		c-3.1,0-6.1,0.6-9.1,1.8c-3,1.2-5.6,2.9-8,5.3c-2.4,2.4-4.1,5-5.3,8c-1.2,3-1.7,6-1.7,9.1c0,3.1,0.6,6.1,1.7,9.1
		C2463.1,647.2,2464.9,649.9,2467.3,652.3z M2493.1,626.5c1.2,1.2,2.1,2.6,2.7,4.1c0.6,1.5,0.9,3.1,0.9,4.7c0,1.6-0.3,3.1-0.9,4.7
		c-0.6,1.5-1.5,2.9-2.7,4.1c-1.2,1.2-2.6,2.1-4.1,2.7c-1.5,0.6-3.1,0.9-4.7,0.9c-1.6,0-3.2-0.3-4.7-0.9c-1.5-0.6-2.9-1.5-4.1-2.7
		c-1.2-1.2-2.1-2.6-2.7-4.1c-0.6-1.5-0.9-3.1-0.9-4.7c0-1.6,0.3-3.2,0.9-4.7c0.6-1.5,1.5-2.9,2.7-4.1c1.2-1.2,2.6-2.1,4.1-2.7
		c1.5-0.6,3.1-0.9,4.6-0.9c1.6,0,3.1,0.3,4.7,0.9C2490.5,624.3,2491.9,625.3,2493.1,626.5z" />
			<path class="st12" d="M2463.4,523.3v11.6h30c1.8,0,3.3,0.6,4.5,1.9c1.2,1.2,1.8,2.7,1.8,4.5c0,1.8-0.6,3.3-1.8,4.5
		c-1.2,1.2-2.7,1.8-4.5,1.8h-8.2v11.7h8.1h0.2c2.5,0,4.8-0.5,7-1.4c2.2-1,4.1-2.2,5.7-3.9c1.6-1.6,2.9-3.5,3.8-5.7
		c0.9-2.2,1.4-4.5,1.4-7c0-2.5-0.5-4.8-1.4-7c-0.9-2.2-2.2-4.1-3.8-5.7c-1.6-1.6-3.5-2.9-5.7-3.9c-2.2-1-4.5-1.4-7-1.4h-0.2H2463.4z
		" />
			<path class="st12" d="M2266,653.2c2.4,2.4,5,4.1,8,5.3c3,1.2,6,1.7,9.1,1.7c3.1,0,6.1-0.6,9.1-1.7c3-1.2,5.6-2.9,8-5.3
		c2.3-2.3,4.1-5,5.3-8c1.2-3,1.8-6,1.8-9.1c0-3.1-0.6-6.1-1.7-9.1c-1.2-3-2.9-5.6-5.3-8c-2.4-2.4-5-4.1-8-5.3c-3-1.2-6-1.7-9.1-1.7
		c-3.1,0-6.1,0.6-9.1,1.8c-3,1.2-5.6,2.9-8,5.3c-2.4,2.4-4.1,5-5.3,8c-1.2,3-1.7,6-1.7,9.1c0,3.1,0.6,6.1,1.7,9.1
		C2261.8,648.1,2263.6,650.8,2266,653.2z M2291.8,627.4c1.2,1.2,2.1,2.6,2.7,4.1c0.6,1.5,0.9,3.1,0.9,4.6c0,1.6-0.3,3.1-0.9,4.7
		c-0.6,1.5-1.5,2.9-2.7,4.1c-1.2,1.2-2.6,2.1-4.1,2.7c-1.5,0.6-3.1,0.9-4.7,0.9c-1.6,0-3.2-0.3-4.7-0.9c-1.5-0.6-2.9-1.5-4.1-2.7
		c-1.2-1.2-2.1-2.6-2.7-4.1c-0.6-1.5-0.9-3.1-0.9-4.7c0-1.6,0.3-3.2,0.9-4.7c0.6-1.5,1.5-2.9,2.7-4.1c1.2-1.2,2.6-2.1,4.1-2.7
		c1.5-0.6,3.1-0.9,4.6-0.9c1.6,0,3.1,0.3,4.6,0.9C2289.2,625.2,2290.6,626.1,2291.8,627.4z" />
			<path class="st12" d="M2162,515.2 M2179.5,508.6c-3.2,0-6.2,0.6-9.1,1.8c-2.9,1.2-5.4,2.9-7.7,5.1l8.2,8.2c2.4-2.3,5.3-3.4,8.6-3.4
		c1.7,0,3.3,0.3,4.8,1c1.5,0.7,2.8,1.5,3.9,2.7c1.1,1.1,2,2.4,2.7,3.9c0.7,1.5,1,3.1,1,4.8s-0.3,3.3-1,4.8c-0.7,1.5-1.5,2.8-2.7,3.9
		c-1.1,1.1-2.4,2-3.9,2.7c-1.5,0.7-3.1,1-4.8,1c-3.3,0-6.1-1.1-8.6-3.4l-8.2,8.2c2.3,2.3,4.8,4,7.7,5.2c2.9,1.2,5.9,1.7,9.1,1.7
		c3.3,0,6.5-0.6,9.4-1.9c2.9-1.3,5.4-3,7.6-5.2c2.2-2.2,3.9-4.7,5.2-7.6c1.3-2.9,1.9-6,1.9-9.4s-0.6-6.5-1.9-9.4
		c-1.3-2.9-3-5.4-5.2-7.6c-2.2-2.2-4.7-3.9-7.6-5.2C2186,509.3,2182.8,508.6,2179.5,508.6z" />
			<path class="st12" d="M2368,655.3c2.4,2.4,5,4.1,8,5.3c3,1.2,6,1.7,9.1,1.7c3.1,0,6.1-0.6,9.1-1.7c3-1.2,5.6-2.9,8-5.3
		c2.3-2.3,4.1-5,5.3-8c1.2-3,1.8-6,1.8-9.1c0-3.1-0.6-6.1-1.7-9.1c-1.2-3-2.9-5.6-5.3-8c-2.4-2.4-5-4.1-8-5.3c-3-1.2-6-1.7-9.1-1.7
		c-3.1,0-6.1,0.6-9.1,1.8c-3,1.2-5.6,2.9-8,5.3c-2.4,2.4-4.1,5-5.3,8c-1.2,3-1.7,6-1.7,9.1c0,3.1,0.6,6.1,1.7,9.1
		C2363.9,650.3,2365.7,653,2368,655.3z M2393.8,629.5c1.2,1.2,2.1,2.6,2.7,4.1c0.6,1.5,0.9,3.1,0.9,4.7c0,1.6-0.3,3.1-0.9,4.6
		c-0.6,1.5-1.5,2.9-2.7,4.1c-1.2,1.2-2.6,2.1-4.1,2.7c-1.5,0.6-3.1,0.9-4.7,0.9c-1.6,0-3.2-0.3-4.7-0.9c-1.5-0.6-2.9-1.5-4.1-2.7
		c-1.2-1.2-2.1-2.6-2.7-4.1c-0.6-1.5-0.9-3.1-0.9-4.7c0-1.6,0.3-3.2,0.9-4.7c0.6-1.5,1.5-2.9,2.7-4.1c1.2-1.2,2.6-2.1,4.1-2.7
		c1.5-0.6,3.1-0.9,4.6-0.9c1.6,0,3.1,0.3,4.6,0.9C2391.3,627.4,2392.6,628.3,2393.8,629.5z" />
			<path class="st12" d="M2262.7,244.9c2.4,2.4,5,4.1,8,5.3c3,1.2,6,1.7,9.1,1.7c3.1,0,6.1-0.6,9.1-1.7c3-1.2,5.6-2.9,8-5.3
		c2.3-2.3,4.1-5,5.3-8c1.2-3,1.8-6,1.8-9.1c0-3.1-0.6-6.1-1.7-9.1c-1.2-3-2.9-5.6-5.3-8c-2.4-2.4-5-4.1-8-5.3c-3-1.2-6-1.7-9.1-1.7
		c-3.1,0-6.1,0.6-9.1,1.8c-3,1.2-5.6,2.9-8,5.3c-2.4,2.4-4.1,5-5.3,8c-1.2,3-1.7,6-1.7,9.1c0,3.1,0.6,6.1,1.7,9.1
		C2258.5,239.9,2260.3,242.6,2262.7,244.9z M2288.5,219.1c1.2,1.2,2.1,2.6,2.7,4.1c0.6,1.5,0.9,3.1,0.9,4.6c0,1.6-0.3,3.1-0.9,4.7
		c-0.6,1.5-1.5,2.9-2.7,4.1c-1.2,1.2-2.6,2.1-4.1,2.7c-1.5,0.6-3.1,0.9-4.7,0.9c-1.6,0-3.2-0.3-4.7-0.9c-1.5-0.6-2.9-1.5-4.1-2.7
		s-2.1-2.6-2.7-4.1c-0.6-1.5-0.9-3.1-0.9-4.7c0-1.6,0.3-3.2,0.9-4.7c0.6-1.5,1.5-2.9,2.7-4.1c1.2-1.2,2.6-2.1,4.1-2.7
		c1.5-0.6,3.1-0.9,4.6-0.9c1.6,0,3.1,0.3,4.7,0.9C2285.9,217,2287.2,217.9,2288.5,219.1z" />
			<path class="st12" d="M2468.4,450.7c2.4,2.4,5,4.1,8,5.3c3,1.2,6,1.7,9.1,1.7c3.1,0,6.1-0.6,9.1-1.7c3-1.2,5.6-2.9,8-5.3
		c2.3-2.3,4.1-5,5.3-8c1.2-3,1.8-6,1.8-9.1c0-3.1-0.6-6.1-1.7-9.1c-1.2-3-2.9-5.6-5.3-8c-2.4-2.4-5-4.1-8-5.3c-3-1.2-6-1.7-9.1-1.7
		c-3.1,0-6.1,0.6-9.1,1.8c-3,1.2-5.6,2.9-8,5.3c-2.4,2.4-4.1,5-5.3,8c-1.2,3-1.7,6-1.7,9.1c0,3.1,0.6,6.1,1.7,9.1
		C2464.3,445.7,2466.1,448.3,2468.4,450.7z M2494.2,424.9c1.2,1.2,2.1,2.6,2.7,4.1c0.6,1.5,0.9,3.1,0.9,4.6c0,1.6-0.3,3.1-0.9,4.6
		c-0.6,1.5-1.5,2.9-2.7,4.1s-2.6,2.1-4.1,2.7c-1.5,0.6-3.1,0.9-4.7,0.9c-1.6,0-3.2-0.3-4.7-0.9c-1.5-0.6-2.9-1.5-4.1-2.7
		s-2.1-2.6-2.7-4.1c-0.6-1.5-0.9-3.1-0.9-4.7c0-1.6,0.3-3.2,0.9-4.7c0.6-1.5,1.5-2.9,2.7-4.1s2.6-2.1,4.1-2.7
		c1.5-0.6,3.1-0.9,4.6-0.9c1.6,0,3.1,0.3,4.7,0.9C2491.6,422.8,2493,423.7,2494.2,424.9z" />
			<path class="st12" d="M2161.6,43.6c2.4,2.4,5,4.1,8,5.3c3,1.2,6,1.7,9.1,1.7c3.1,0,6.1-0.6,9.1-1.7c3-1.2,5.6-2.9,8-5.3
		c2.3-2.3,4.1-5,5.3-8c1.2-3,1.8-6,1.8-9.1s-0.6-6.1-1.7-9.1c-1.2-3-2.9-5.6-5.3-8c-2.4-2.4-5-4.1-8-5.3c-3-1.2-6-1.7-9.1-1.7
		c-3.1,0-6.1,0.6-9.1,1.8c-3,1.2-5.6,2.9-8,5.3c-2.4,2.4-4.1,5-5.3,8c-1.2,3-1.7,6-1.7,9.1c0,3.1,0.6,6.1,1.7,9.1
		C2157.5,38.6,2159.2,41.2,2161.6,43.6z M2187.4,17.8c1.2,1.2,2.1,2.6,2.7,4.1c0.6,1.5,0.9,3.1,0.9,4.7c0,1.6-0.3,3.1-0.9,4.7
		c-0.6,1.5-1.5,2.9-2.7,4.1c-1.2,1.2-2.6,2.1-4.1,2.7c-1.5,0.6-3.1,0.9-4.7,0.9c-1.6,0-3.2-0.3-4.7-0.9c-1.5-0.6-2.9-1.5-4.1-2.7
		c-1.2-1.2-2.1-2.6-2.7-4.1c-0.6-1.5-0.9-3.1-0.9-4.7c0-1.6,0.3-3.2,0.9-4.7c0.6-1.5,1.5-2.9,2.7-4.1c1.2-1.2,2.6-2.1,4.1-2.7
		c1.5-0.6,3.1-0.9,4.6-0.9c1.6,0,3.1,0.3,4.6,0.9C2184.8,15.7,2186.2,16.6,2187.4,17.8z" />
			<path class="st12" d="M2365.4,247.4c2.4,2.4,5,4.1,8,5.3c3,1.2,6,1.7,9.1,1.7c3.1,0,6.1-0.6,9.1-1.7c3-1.2,5.6-2.9,8-5.3
		c2.3-2.3,4.1-5,5.3-8c1.2-3,1.8-6,1.8-9.1c0-3.1-0.6-6.1-1.7-9.1c-1.2-3-2.9-5.6-5.3-8c-2.4-2.4-5-4.1-8-5.3c-3-1.2-6-1.7-9.1-1.7
		c-3.1,0-6.1,0.6-9.1,1.8c-3,1.2-5.6,2.9-8,5.3c-2.4,2.4-4.1,5-5.3,8c-1.2,3-1.7,6-1.7,9.1c0,3.1,0.6,6.1,1.7,9.1
		C2361.3,242.4,2363,245,2365.4,247.4z M2391.2,221.6c1.2,1.2,2.1,2.6,2.7,4.1c0.6,1.5,0.9,3.1,0.9,4.6c0,1.6-0.3,3.1-0.9,4.7
		c-0.6,1.5-1.5,2.9-2.7,4.1c-1.2,1.2-2.6,2.1-4.1,2.7c-1.5,0.6-3.1,0.9-4.7,0.9c-1.6,0-3.2-0.3-4.7-0.9c-1.5-0.6-2.9-1.5-4.1-2.7
		s-2.1-2.6-2.7-4.1c-0.6-1.5-0.9-3.1-0.9-4.7c0-1.6,0.3-3.2,0.9-4.7c0.6-1.5,1.5-2.9,2.7-4.1c1.2-1.2,2.6-2.1,4.1-2.7
		c1.5-0.6,3.1-0.9,4.6-0.9c1.6,0,3.1,0.3,4.6,0.9C2388.6,219.5,2390,220.4,2391.2,221.6z" />
			<path class="st12" d="M2465.9,245.8c2.4,2.4,5,4.1,8,5.3c3,1.2,6,1.7,9.1,1.7c3.1,0,6.1-0.6,9.1-1.7c3-1.2,5.6-2.9,8-5.3
		c2.3-2.3,4.1-5,5.3-8c1.2-3,1.8-6,1.8-9.1c0-3.1-0.6-6.1-1.7-9.1c-1.2-3-2.9-5.6-5.3-8c-2.4-2.4-5-4.1-8-5.3c-3-1.2-6-1.7-9.1-1.7
		c-3.1,0-6.1,0.6-9.1,1.8c-3,1.2-5.6,2.9-8,5.3c-2.4,2.4-4.1,5-5.3,8c-1.2,3-1.7,6-1.7,9.1c0,3.1,0.6,6.1,1.7,9.1
		C2461.8,240.7,2463.5,243.4,2465.9,245.8z M2491.7,220c1.2,1.2,2.1,2.6,2.7,4.1c0.6,1.5,0.9,3.1,0.9,4.7c0,1.6-0.3,3.1-0.9,4.6
		c-0.6,1.5-1.5,2.9-2.7,4.1c-1.2,1.2-2.6,2.1-4.1,2.7c-1.5,0.6-3.1,0.9-4.7,0.9c-1.6,0-3.2-0.3-4.7-0.9c-1.5-0.6-2.9-1.5-4.1-2.7
		s-2.1-2.6-2.7-4.1c-0.6-1.5-0.9-3.1-0.9-4.7c0-1.6,0.3-3.2,0.9-4.7c0.6-1.5,1.5-2.9,2.7-4.1c1.2-1.2,2.6-2.1,4.1-2.7
		c1.5-0.6,3.1-0.9,4.6-0.9c1.6,0,3.1,0.3,4.6,0.9C2489.1,217.8,2490.5,218.7,2491.7,220z" />
			<path class="st12" d="M2466.6,41c2.4,2.4,5,4.1,8,5.3c3,1.2,6,1.7,9.1,1.7c3.1,0,6.1-0.6,9.1-1.7c3-1.2,5.6-2.9,8-5.3
		c2.3-2.3,4.1-5,5.3-8c1.2-3,1.8-6,1.8-9.1s-0.6-6.1-1.7-9.1c-1.2-3-2.9-5.6-5.3-8c-2.4-2.4-5-4.1-8-5.3c-3-1.2-6-1.7-9.1-1.7
		c-3.1,0-6.1,0.6-9.1,1.8c-3,1.2-5.6,2.9-8,5.3c-2.4,2.4-4.1,5-5.3,8c-1.2,3-1.7,6-1.7,9.1c0,3.1,0.6,6.1,1.7,9.1
		C2462.4,36,2464.2,38.7,2466.6,41z M2492.4,15.2c1.2,1.2,2.1,2.6,2.7,4.1c0.6,1.5,0.9,3.1,0.9,4.7c0,1.6-0.3,3.1-0.9,4.7
		c-0.6,1.5-1.5,2.9-2.7,4.1c-1.2,1.2-2.6,2.1-4.1,2.7c-1.5,0.6-3.1,0.9-4.7,0.9c-1.6,0-3.2-0.3-4.7-0.9c-1.5-0.6-2.9-1.5-4.1-2.7
		c-1.2-1.2-2.1-2.6-2.7-4.1c-0.6-1.5-0.9-3.1-0.9-4.7c0-1.6,0.3-3.2,0.9-4.7c0.6-1.5,1.5-2.9,2.7-4.1s2.6-2.1,4.1-2.7
		c1.5-0.6,3.1-0.9,4.6-0.9c1.6,0,3.1,0.3,4.7,0.9C2489.8,13.1,2491.1,14,2492.4,15.2z" />
			<path class="st12" d="M2363.9,43.7c2.4,2.4,5,4.1,8,5.3c3,1.2,6,1.7,9.1,1.7c3.1,0,6.1-0.6,9.1-1.7c3-1.2,5.6-2.9,8-5.3
		c2.3-2.3,4.1-5,5.3-8c1.2-3,1.8-6,1.8-9.1s-0.6-6.1-1.7-9.1c-1.2-3-2.9-5.6-5.3-8c-2.4-2.4-5-4.1-8-5.3c-3-1.2-6-1.7-9.1-1.7
		c-3.1,0-6.1,0.6-9.1,1.8c-3,1.2-5.6,2.9-8,5.3c-2.4,2.4-4.1,5-5.3,8c-1.2,3-1.7,6-1.7,9.1c0,3.1,0.6,6.1,1.7,9.1
		C2359.8,38.7,2361.6,41.4,2363.9,43.7z M2389.7,17.9c1.2,1.2,2.1,2.6,2.7,4.1c0.6,1.5,0.9,3.1,0.9,4.7c0,1.6-0.3,3.1-0.9,4.7
		c-0.6,1.5-1.5,2.9-2.7,4.1c-1.2,1.2-2.6,2.1-4.1,2.7c-1.5,0.6-3.1,0.9-4.7,0.9c-1.6,0-3.2-0.3-4.7-0.9c-1.5-0.6-2.9-1.5-4.1-2.7
		c-1.2-1.2-2.1-2.6-2.7-4.1c-0.6-1.5-0.9-3.1-0.9-4.7c0-1.6,0.3-3.2,0.9-4.7c0.6-1.5,1.5-2.9,2.7-4.1c1.2-1.2,2.6-2.1,4.1-2.7
		c1.5-0.6,3.1-0.9,4.6-0.9c1.6,0,3.1,0.3,4.7,0.9C2387.1,15.8,2388.5,16.7,2389.7,17.9z" />
			<path class="st12" d="M2261.4,41.2c2.4,2.4,5,4.1,8,5.3c3,1.2,6,1.7,9.1,1.7c3.1,0,6.1-0.6,9.1-1.7c3-1.2,5.6-2.9,8-5.3
		c2.3-2.3,4.1-5,5.3-8c1.2-3,1.8-6,1.8-9.1s-0.6-6.1-1.7-9.1c-1.2-3-2.9-5.6-5.3-8c-2.4-2.4-5-4.1-8-5.3c-3-1.2-6-1.7-9.1-1.7
		c-3.1,0-6.1,0.6-9.1,1.8c-3,1.2-5.6,2.9-8,5.3c-2.4,2.4-4.1,5-5.3,8c-1.2,3-1.7,6-1.7,9.1c0,3.1,0.6,6.1,1.7,9.1
		C2257.2,36.2,2259,38.9,2261.4,41.2z M2287.2,15.4c1.2,1.2,2.1,2.6,2.7,4.1c0.6,1.5,0.9,3.1,0.9,4.7c0,1.6-0.3,3.1-0.9,4.7
		c-0.6,1.5-1.5,2.9-2.7,4.1c-1.2,1.2-2.6,2.1-4.1,2.7c-1.5,0.6-3.1,0.9-4.7,0.9c-1.6,0-3.2-0.3-4.7-0.9c-1.5-0.6-2.9-1.5-4.1-2.7
		c-1.2-1.2-2.1-2.6-2.7-4.1c-0.6-1.5-0.9-3.1-0.9-4.7c0-1.6,0.3-3.2,0.9-4.7c0.6-1.5,1.5-2.9,2.7-4.1s2.6-2.1,4.1-2.7
		c1.5-0.6,3.1-0.9,4.6-0.9c1.6,0,3.1,0.3,4.6,0.9C2284.6,13.3,2285.9,14.2,2287.2,15.4z" />
			<path class="st12" d="M2160,656.9c2.4,2.4,5,4.1,8,5.3c3,1.2,6,1.7,9.1,1.7c3.1,0,6.1-0.6,9.1-1.7c3-1.2,5.6-2.9,8-5.3
		c2.3-2.3,4.1-5,5.3-8c1.2-3,1.8-6,1.8-9.1c0-3.1-0.6-6.1-1.7-9.1c-1.2-3-2.9-5.6-5.3-8c-2.4-2.4-5-4.1-8-5.3c-3-1.2-6-1.7-9.1-1.7
		c-3.1,0-6.1,0.6-9.1,1.8c-3,1.2-5.6,2.9-8,5.3c-2.4,2.4-4.1,5-5.3,8c-1.2,3-1.7,6-1.7,9.1c0,3.1,0.6,6.1,1.7,9.1
		C2155.8,651.9,2157.6,654.5,2160,656.9z M2185.8,631.1c1.2,1.2,2.1,2.6,2.7,4.1c0.6,1.5,0.9,3.1,0.9,4.6c0,1.6-0.3,3.1-0.9,4.7
		c-0.6,1.5-1.5,2.9-2.7,4.1c-1.2,1.2-2.6,2.1-4.1,2.7c-1.5,0.6-3.1,0.9-4.7,0.9c-1.6,0-3.2-0.3-4.7-0.9c-1.5-0.6-2.9-1.5-4.1-2.7
		c-1.2-1.2-2.1-2.6-2.7-4.1c-0.6-1.5-0.9-3.1-0.9-4.7c0-1.6,0.3-3.2,0.9-4.7c0.6-1.5,1.5-2.9,2.7-4.1c1.2-1.2,2.6-2.1,4.1-2.7
		c1.5-0.6,3.1-0.9,4.6-0.9c1.6,0,3.1,0.3,4.7,0.9C2183.2,629,2184.5,629.9,2185.8,631.1z" />
			<path class="st12" d="M2501.6,315.1 M2508.2,332.6c0-3.2-0.6-6.2-1.8-9.1c-1.2-2.9-2.9-5.4-5.1-7.7l-8.2,8.2
		c2.3,2.4,3.4,5.3,3.4,8.6c0,1.7-0.3,3.3-1,4.8c-0.7,1.5-1.5,2.8-2.7,3.9c-1.1,1.1-2.4,2-3.9,2.7c-1.5,0.7-3.1,1-4.8,1
		c-1.7,0-3.3-0.3-4.8-1c-1.5-0.7-2.8-1.5-3.9-2.7s-2-2.4-2.7-3.9c-0.7-1.5-1-3.1-1-4.8c0-3.3,1.1-6.1,3.4-8.6l-8.2-8.2
		c-2.3,2.3-4,4.8-5.2,7.7c-1.2,2.9-1.7,5.9-1.7,9.1c0,3.3,0.6,6.5,1.9,9.4c1.3,2.9,3,5.4,5.2,7.6c2.2,2.2,4.7,3.9,7.6,5.2
		c2.9,1.3,6,1.9,9.4,1.9c3.3,0,6.5-0.6,9.4-1.9c2.9-1.3,5.4-3,7.6-5.2c2.2-2.2,3.9-4.7,5.2-7.6
		C2507.6,339.1,2508.2,335.9,2508.2,332.6z" />
			<path class="st12" d="M2394.2,305.7l-11.6,0v30c0,1.8-0.6,3.3-1.9,4.5c-1.2,1.2-2.7,1.8-4.5,1.8c-1.8,0-3.3-0.6-4.5-1.8
		c-1.2-1.2-1.8-2.7-1.8-4.5v-8.2l-11.7,0v8.1v0.2c0,2.5,0.5,4.8,1.4,7c1,2.2,2.2,4.1,3.9,5.7c1.6,1.6,3.5,2.9,5.7,3.8
		c2.2,0.9,4.5,1.4,7,1.4c2.5,0,4.8-0.5,7-1.4c2.2-0.9,4.1-2.2,5.7-3.8c1.6-1.6,2.9-3.5,3.9-5.7c1-2.2,1.4-4.5,1.4-7v-0.2V305.7z" />
			<path class="st12" d="M2194.5,142.6 M2177,149.1c3.2,0,6.2-0.6,9.1-1.8c2.9-1.2,5.4-2.9,7.7-5.1l-8.2-8.2c-2.4,2.3-5.3,3.4-8.6,3.4
		c-1.7,0-3.3-0.3-4.8-1c-1.5-0.7-2.8-1.5-3.9-2.7c-1.1-1.1-2-2.4-2.7-3.9c-0.7-1.5-1-3.1-1-4.8c0-1.7,0.3-3.3,1-4.8
		c0.7-1.5,1.5-2.8,2.7-3.9c1.1-1.1,2.4-2,3.9-2.7c1.5-0.7,3.1-1,4.8-1c3.3,0,6.1,1.1,8.6,3.4l8.2-8.2c-2.3-2.3-4.8-4-7.7-5.2
		c-2.9-1.2-5.9-1.7-9.1-1.7c-3.3,0-6.5,0.6-9.4,1.9c-2.9,1.3-5.4,3-7.6,5.2c-2.2,2.2-3.9,4.7-5.2,7.6c-1.3,2.9-1.9,6-1.9,9.4
		s0.6,6.5,1.9,9.4c1.3,2.9,3,5.4,5.2,7.6c2.2,2.2,4.7,3.9,7.6,5.2C2170.5,148.5,2173.6,149.1,2177,149.1z" />
			<path class="st12" d="M2255.7,115.3v11.6h30c1.8,0,3.3,0.6,4.5,1.9c1.2,1.2,1.8,2.7,1.8,4.5c0,1.8-0.6,3.3-1.8,4.5
		c-1.2,1.2-2.7,1.8-4.5,1.8h-8.2v11.7h8.1h0.2c2.5,0,4.8-0.5,7-1.4c2.2-1,4.1-2.2,5.7-3.9c1.6-1.6,2.9-3.5,3.8-5.7
		c0.9-2.2,1.4-4.5,1.4-7c0-2.5-0.5-4.8-1.4-7c-0.9-2.2-2.2-4.1-3.8-5.7c-1.6-1.6-3.5-2.9-5.7-3.9c-2.2-1-4.5-1.4-7-1.4h-0.2H2255.7z
		" />
			<path class="st12" d="M2507.7,141.7v-11.6h-30c-1.8,0-3.3-0.6-4.5-1.9c-1.2-1.2-1.8-2.7-1.8-4.5c0-1.8,0.6-3.3,1.8-4.5
		c1.2-1.2,2.7-1.8,4.5-1.8h8.2v-11.7h-8.1h-0.2c-2.5,0-4.8,0.5-7,1.4c-2.2,1-4.1,2.2-5.7,3.9c-1.6,1.6-2.9,3.5-3.8,5.7
		c-0.9,2.2-1.4,4.5-1.4,7c0,2.5,0.5,4.8,1.4,7c0.9,2.2,2.2,4.1,3.8,5.7c1.6,1.6,3.5,2.9,5.7,3.9c2.2,1,4.5,1.4,7,1.4h0.2
		L2507.7,141.7z" />
			<path class="st12" d="M2363.6,109.5 M2381.1,102.9c-3.2,0-6.2,0.6-9.1,1.8c-2.9,1.2-5.4,2.9-7.7,5.1l8.2,8.2
		c2.4-2.3,5.3-3.4,8.6-3.4c1.7,0,3.3,0.3,4.8,1c1.5,0.7,2.8,1.5,3.9,2.7c1.1,1.1,2,2.4,2.7,3.9c0.7,1.5,1,3.1,1,4.8s-0.3,3.3-1,4.8
		c-0.7,1.5-1.5,2.8-2.7,3.9c-1.1,1.1-2.4,2-3.9,2.7c-1.5,0.7-3.1,1-4.8,1c-3.3,0-6.1-1.1-8.6-3.4l-8.2,8.2c2.3,2.3,4.8,4,7.7,5.2
		c2.9,1.2,5.9,1.7,9.1,1.7c3.3,0,6.5-0.6,9.4-1.9c2.9-1.3,5.4-3,7.6-5.2c2.2-2.2,3.9-4.7,5.2-7.6c1.3-2.9,1.9-6,1.9-9.4
		c0-3.3-0.6-6.5-1.9-9.4c-1.3-2.9-3-5.4-5.2-7.6c-2.2-2.2-4.7-3.9-7.6-5.2C2387.6,103.6,2384.5,102.9,2381.1,102.9z" />
			<path class="st12" d="M2464.6-58.8 M2459-76.6c-0.2,3.2,0.2,6.2,1.3,9.1c1,2.9,2.6,5.6,4.7,8l8.6-7.7c-2.1-2.5-3.1-5.5-2.9-8.7
		c0.1-1.7,0.5-3.3,1.3-4.7c0.7-1.5,1.7-2.7,2.9-3.7c1.2-1,2.5-1.9,4-2.4c1.5-0.6,3.1-0.8,4.9-0.7c1.7,0.1,3.3,0.5,4.7,1.3
		c1.5,0.7,2.7,1.7,3.7,2.9c1,1.2,1.9,2.5,2.4,4c0.6,1.5,0.8,3.1,0.7,4.9c-0.2,3.3-1.5,6.1-3.9,8.4l7.7,8.6c2.4-2.1,4.3-4.6,5.6-7.4
		c1.3-2.8,2.1-5.8,2.2-8.9c0.2-3.3-0.3-6.5-1.4-9.5c-1.1-3-2.7-5.6-4.7-7.9c-2-2.3-4.5-4.2-7.3-5.6c-2.8-1.4-5.9-2.2-9.2-2.4
		s-6.5,0.3-9.5,1.4c-3,1.1-5.6,2.7-7.9,4.7c-2.3,2-4.2,4.5-5.6,7.3C2460-83,2459.2-80,2459-76.6z" />
			<path class="st12" d="M2368.6-54.3l11.6,0v-30c0-1.8,0.6-3.3,1.9-4.5c1.2-1.2,2.7-1.8,4.5-1.8c1.8,0,3.3,0.6,4.5,1.8
		c1.2,1.2,1.8,2.7,1.8,4.5v8.2l11.7,0v-8.1v-0.2c0-2.5-0.5-4.8-1.4-7c-1-2.2-2.2-4.1-3.9-5.7c-1.6-1.6-3.5-2.9-5.7-3.8
		c-2.2-0.9-4.5-1.4-7-1.4c-2.5,0-4.8,0.5-7,1.4c-2.2,0.9-4.1,2.2-5.7,3.8c-1.6,1.6-2.9,3.5-3.9,5.7c-1,2.2-1.4,4.5-1.4,7v0.2V-54.3z
		" />
			<path class="st12" d="M2296.9-91.8 M2303.5-74.3c0-3.2-0.6-6.2-1.8-9.1c-1.2-2.9-2.9-5.4-5.1-7.7l-8.2,8.2c2.3,2.4,3.4,5.3,3.4,8.6
		c0,1.7-0.3,3.3-1,4.8c-0.7,1.5-1.5,2.8-2.7,3.9c-1.1,1.1-2.4,2-3.9,2.7c-1.5,0.7-3.1,1-4.8,1c-1.7,0-3.3-0.3-4.8-1
		c-1.5-0.7-2.8-1.5-3.9-2.7s-2-2.4-2.7-3.9c-0.7-1.5-1-3.1-1-4.8c0-3.3,1.1-6.1,3.4-8.6l-8.2-8.2c-2.3,2.3-4,4.8-5.2,7.7
		c-1.2,2.9-1.7,5.9-1.7,9.1c0,3.3,0.6,6.5,1.9,9.4c1.3,2.9,3,5.4,5.2,7.6c2.2,2.2,4.7,3.9,7.6,5.2c2.9,1.3,6,1.9,9.4,1.9
		c3.3,0,6.5-0.6,9.4-1.9c2.9-1.3,5.4-3,7.6-5.2c2.2-2.2,3.9-4.7,5.2-7.6C2302.8-67.9,2303.5-71,2303.5-74.3z" />
			<path class="st12" d="M2189.1-101.7h-11.6v30c0,1.8-0.6,3.3-1.9,4.5c-1.2,1.2-2.7,1.8-4.5,1.8c-1.8,0-3.3-0.6-4.5-1.8
		s-1.8-2.7-1.8-4.5v-8.2h-11.7v8.1v0.2c0,2.5,0.5,4.8,1.4,7c1,2.2,2.2,4.1,3.9,5.7c1.6,1.6,3.5,2.9,5.7,3.8c2.2,0.9,4.5,1.4,7,1.4
		c2.5,0,4.8-0.5,7-1.4c2.2-0.9,4.1-2.2,5.7-3.8c1.6-1.6,2.9-3.5,3.9-5.7s1.4-4.5,1.4-7v-0.2V-101.7z" />
		</g>
		<pattern id="SVGID_6_" xlink:href="#New_Pattern_4" patternTransform="matrix(0.7071 0.7071 -0.7071 0.7071 -6457.4893 2113.2268)">
		</pattern>
		<rect y="-38" class="st13" width="1998" height="1098" />
	</svg>
