<svg id="Layer_1" data-name="Layer 1" xmlns="http://www.w3.org/2000/svg" viewBox="0 0 480 480"><defs><style>.cls-1{fill:#333;}</style></defs><title>menu</title><path class="cls-1" d="M399.54,267.5H80.46c-7.2,0-13-6.84-13-15.28V227.78c0-8.44,5.84-15.28,13-15.28H399.54c7.2,0,13,6.84,13,15.28v24.43C412.59,260.66,406.75,267.5,399.54,267.5Z"/><path class="cls-1" d="M399.54,141.28H80.46c-7.2,0-13-6.84-13-15.28V101.56c0-8.44,5.84-15.28,13-15.28H399.54c7.2,0,13,6.84,13,15.28V126C412.59,134.43,406.75,141.28,399.54,141.28Z"/><path class="cls-1" d="M399.54,393.72H80.46c-7.2,0-13-6.84-13-15.28V354c0-8.44,5.84-15.28,13-15.28H399.54c7.2,0,13,6.84,13,15.28v24.43C412.59,386.88,406.75,393.72,399.54,393.72Z"/></svg>