<svg id="Layer_1" data-name="Layer 1" xmlns="http://www.w3.org/2000/svg" viewBox="0 0 480 480"><defs><style>.cls-1{fill:#333}</style></defs><title>menu</title><path class="cls-1" d="M399.54 267.5H80.46c-7.2 0-13-6.84-13-15.28v-24.44c0-8.44 5.84-15.28 13-15.28h319.08c7.2 0 13 6.84 13 15.28v24.43c.05 8.45-5.79 15.29-13 15.29zm0-126.22H80.46c-7.2 0-13-6.84-13-15.28v-24.44c0-8.44 5.84-15.28 13-15.28h319.08c7.2 0 13 6.84 13 15.28V126c.05 8.43-5.79 15.28-13 15.28zm0 252.44H80.46c-7.2 0-13-6.84-13-15.28V354c0-8.44 5.84-15.28 13-15.28h319.08c7.2 0 13 6.84 13 15.28v24.43c.05 8.45-5.79 15.29-13 15.29z"/></svg>