<svg xmlns="http://www.w3.org/2000/svg" viewBox="0 0 41.98 49.05"><defs><style>.cls-1{fill:none;stroke:#efefef;stroke-miterlimit:10;}</style></defs><title>Asset 3</title><g id="Layer_2" data-name="Layer 2"><g id="Layer_1-2" data-name="Layer 1"><path class="cls-1" d="M24.52,48.55a23.36,23.36,0,0,0,9.06-1.78,24.23,24.23,0,0,0,7.69-5.12l-8.18-8.19a12.11,12.11,0,0,1-8.57,3.41,11.78,11.78,0,0,1-4.81-1,12.59,12.59,0,0,1-6.55-6.56,12.23,12.23,0,0,1,0-9.62,12.59,12.59,0,0,1,6.55-6.56,11.81,11.81,0,0,1,4.81-1,12.11,12.11,0,0,1,8.57,3.41L41.27,7.4a23.19,23.19,0,0,0-7.69-5.15A23.8,23.8,0,0,0,24.52.5a23.25,23.25,0,0,0-9.36,1.89A24.29,24.29,0,0,0,2.39,15.16,23.2,23.2,0,0,0,.5,24.52a23.2,23.2,0,0,0,1.89,9.36A24.29,24.29,0,0,0,15.16,46.65,23.23,23.23,0,0,0,24.52,48.55Z"/></g></g></svg>