<svg xmlns="http://www.w3.org/2000/svg" viewBox="0 0 36.86 48.97"><defs><style>.cls-1{fill:none;stroke:#efefef;stroke-miterlimit:10;}</style></defs><title>Asset 1</title><g id="Layer_2" data-name="Layer 2"><g id="Layer_1-2" data-name="Layer 1"><path class="cls-1" d="M36.36.5H24.79v30A6,6,0,0,1,22.93,35a6.2,6.2,0,0,1-4.5,1.82,6.2,6.2,0,0,1-6.28-6.28V22.36H.5v8.25a17,17,0,0,0,1.44,7A18.51,18.51,0,0,0,5.8,43.25a18,18,0,0,0,5.67,3.82,17.39,17.39,0,0,0,7,1.4,17.41,17.41,0,0,0,7-1.4,18,18,0,0,0,5.67-3.82,18.53,18.53,0,0,0,3.86-5.67,17,17,0,0,0,1.44-7V.5Z"/></g></g></svg>