<svg xmlns="http://www.w3.org/2000/svg" viewBox="0 0 49.17 49.17"><defs><style>.cls-1{fill:none;stroke:#efefef;stroke-miterlimit:10;}</style></defs><title>Asset 1</title><g id="Layer_2" data-name="Layer 2"><g id="Layer_1-2" data-name="Layer 1"><path class="cls-1" d="M7.54,41.62a23.27,23.27,0,0,0,8,5.3,24.36,24.36,0,0,0,18.12,0,23.3,23.3,0,0,0,8-5.3,23.39,23.39,0,0,0,5.27-8,24.25,24.25,0,0,0,0-18.14A24.14,24.14,0,0,0,33.64,2.25a24.26,24.26,0,0,0-18.14,0,23.36,23.36,0,0,0-8,5.27,23.28,23.28,0,0,0-5.3,8,24.36,24.36,0,0,0,0,18.12A23.28,23.28,0,0,0,7.54,41.62Zm25.8-25.8a11.88,11.88,0,0,1,2.72,4.11,12.64,12.64,0,0,1,0,9.3,12.29,12.29,0,0,1-6.83,6.83,13.29,13.29,0,0,1-4.68.91,12.47,12.47,0,0,1-4.68-.86,12.29,12.29,0,0,1-6.83-6.83,12.43,12.43,0,0,1-.86-4.68,13.2,13.2,0,0,1,.91-4.68,12.27,12.27,0,0,1,6.83-6.83,12.63,12.63,0,0,1,9.3,0A11.87,11.87,0,0,1,33.34,15.82Z"/></g></g></svg>